<!-- Created with Inkscape (http://www.inkscape.org/) --><svg xmlns:inkscape="http://www.inkscape.org/namespaces/inkscape" xmlns:sodipodi="http://sodipodi.sourceforge.net/DTD/sodipodi-0.dtd" xmlns="http://www.w3.org/2000/svg" xmlns:svg="http://www.w3.org/2000/svg" width="297mm" height="210mm" viewBox="0 0 297 210" version="1.1" id="svg5" inkscape:version="1.1.2 (b8e25be8, 2022-02-05)" sodipodi:docname="PLATEAUlogo_wthOSGeoGspP_yoko.svg.zip">
  <sodipodi:namedview id="namedview7" pagecolor="#ffffff" bordercolor="#666666" borderopacity="1.0" inkscape:pageshadow="2" inkscape:pageopacity="0.0" inkscape:pagecheckerboard="0" inkscape:document-units="mm" showgrid="false" inkscape:zoom="0.62991357" inkscape:cx="723.11508" inkscape:cy="451.64927" inkscape:window-width="1512" inkscape:window-height="945" inkscape:window-x="0" inkscape:window-y="37" inkscape:window-maximized="0" inkscape:current-layer="layer1"/>
  <defs id="defs2"/>
  <g inkscape:label="Layer 1" inkscape:groupmode="layer" id="layer1">
    <g stroke-width="2" fill="none" stroke-linecap="butt" id="g137" transform="matrix(0.26458333,0,0,0.26458333,111.27416,-101.79562)">
      <path stroke="#808080" vector-effect="non-scaling-stroke" d="m 280.4,661.76 5.48,12.47 a 0.94,0.87 82 0 0 0.67,0.55 q 4.23,0.71 8.4,-0.23 a 0.42,0.41 71.5 0 0 0.28,-0.58 l -26.02,-58.51 q -0.21,-0.47 -0.43,-0.01 l -27.82,58.6 a 0.37,0.35 -75.3 0 0 0.29,0.52 l 7.57,0.43 a 1.87,1.67 -74.9 0 0 1.67,-1.09 l 5.58,-12.06 a 1.05,1.04 12.4 0 1 0.95,-0.6 l 22.67,0.06 a 0.79,0.76 -11.5 0 1 0.71,0.45" id="path17"/>
      <path stroke="#808080" vector-effect="non-scaling-stroke" d="m 560.65,661.77 5.3,11.88 a 2.14,1.78 74.6 0 0 1.83,1.27 l 7.48,-0.32 a 0.4,0.36 76 0 0 0.29,-0.55 l -26.19,-58.68 q -0.27,-0.61 -0.56,-0.01 l -27.52,58.62 a 0.4,0.39 -71.3 0 0 0.27,0.56 q 4.17,0.83 8.39,0.22 a 0.92,0.91 -81.5 0 0 0.7,-0.52 l 5.65,-12.52 a 0.8,0.79 11.9 0 1 0.73,-0.47 l 22.92,0.06 a 0.79,0.78 77.6 0 1 0.71,0.46" id="path19"/>
      <path stroke="#808080" vector-effect="non-scaling-stroke" d="m 629.44,671.31 q 3.77,3.11 7.98,4.06 10.61,2.39 18.46,-3.46 4.01,-2.99 6.05,-7.33 2.07,-4.43 2.07,-9.58 0,-16.87 0,-35.33 a 1.89,1.72 -0.2 0 0 -1.9,-1.72 l -5.7,0.03 a 0.9,0.86 0.3 0 0 -0.9,0.85 q -0.15,13.41 -0.23,27.09 0,0.12 0.07,6.16 0.06,5.05 -0.59,6.92 -2.75,7.87 -10.26,8.72 -3.65,0.41 -6.8,-1.09 -3.5,-1.67 -5.24,-4.99 -1.43,-2.73 -1.51,-9.54 -0.22,-16.68 -0.43,-33.35 A 0.56,0.5 88.9 0 0 630,618.2 l -7.52,0.14 a 0.54,0.49 89.5 0 0 -0.48,0.54 q 0,15.26 0,30.64 0,0.07 -0.07,2.97 -0.16,6.08 2.13,11.74 1.61,3.98 5.38,7.08" id="path21"/>
      <path stroke="#808080" vector-effect="non-scaling-stroke" d="m 77.31,651.85 q 6.42,0.37 11.19,-1.1 6.7,-2.07 9.54,-7.81 2.57,-5.16 1.69,-11.14 -0.94,-6.39 -6.29,-10.24 -4.76,-3.42 -11.9,-3.37 -3.51,0.02 -3.57,0.02 -4.62,-0.09 -9.23,0.03 a 0.51,0.51 90 0 0 -0.5,0.5 q -0.56,27.67 -0.06,55.33 a 0.67,0.66 -83 0 0 0.49,0.63 q 2.26,0.58 4.56,0.24 0.4,-0.05 2.04,-0.03 1.69,0.03 1.42,-2.1 -0.81,-6.32 0.09,-20.5 a 0.5,0.49 3.5 0 1 0.53,-0.46" id="path23"/>
      <path stroke="#808080" vector-effect="non-scaling-stroke" d="m 168.81,665.95 -0.06,-47.05 a 1.02,0.95 -1.2 0 0 -1.06,-0.95 l -6.82,0.28 a 0.91,0.85 -1.4 0 0 -0.87,0.85 v 54.85 a 0.84,0.81 -89.7 0 0 0.8,0.84 l 24.01,0.06 a 0.54,0.53 1.1 0 0 0.54,-0.51 l 0.22,-6.89 a 0.52,0.48 2.3 0 0 -0.5,-0.5 l -15.75,-0.47 a 0.52,0.51 0.6 0 1 -0.51,-0.51" id="path25"/>
      <path stroke="#808080" vector-effect="non-scaling-stroke" d="m 355.18,626.36 q 1.32,0.07 2.64,0.08 a 0.5,0.49 0 0 1 0.5,0.49 v 47.26 a 0.54,0.49 -90 0 0 0.49,0.54 l 7.52,0.05 a 1.01,0.92 -89.7 0 0 0.93,-1.01 l -0.07,-46.59 a 0.57,0.54 -4.1 0 1 0.5,-0.55 q 5.87,-0.63 11.75,-0.23 a 0.52,0.47 2.3 0 0 0.56,-0.46 v -7.39 a 0.56,0.48 0 0 0 -0.56,-0.48 l -33.2,-0.06 a 0.56,0.56 3.4 0 0 -0.56,0.49 q -0.53,3.73 0.05,7.44 a 0.56,0.55 83.7 0 0 0.58,0.47 q 4.43,-0.28 8.87,-0.05" id="path27"/>
      <path stroke="#808080" vector-effect="non-scaling-stroke" d="m 448.56,640.2 -0.06,-13.45 a 0.5,0.5 -45 0 1 0.5,-0.5 l 20.99,0.07 a 0.89,0.89 2.8 0 0 0.9,-0.81 q 0.36,-4.08 -0.33,-6.97 a 0.64,0.61 -6.2 0 0 -0.62,-0.47 l -29.68,-0.01 a 0.51,0.5 0 0 0 -0.51,0.5 v 55.64 a 0.54,0.54 1.1 0 0 0.52,0.54 q 15.1,0.61 29.98,0.03 a 0.58,0.53 -0.6 0 0 0.56,-0.52 l 0.15,-6.99 a 0.54,0.5 0.5 0 0 -0.54,-0.51 H 449.4 a 0.87,0.85 0.3 0 1 -0.87,-0.86 l 0.14,-16.45 a 0.52,0.52 -90 0 1 0.52,-0.52 h 20.51 a 0.51,0.49 0.6 0 0 0.51,-0.48 l 0.11,-7.25 a 0.52,0.49 0 0 0 -0.52,-0.49 h -20.74 a 0.5,0.5 45 0 1 -0.5,-0.5" id="path29"/>
      <path stroke="#808080" vector-effect="non-scaling-stroke" d="m 234.5,755.3 q 8.24,4.44 13.41,-0.88 3.45,-3.56 3.7,-8.75 0.28,-5.81 -4.26,-9.48 -2.97,-2.4 -6.3,-2.53 -3.76,-0.16 -6.86,2.45 -0.39,0.33 -0.4,-0.17 l -0.36,-15.12 a 0.53,0.49 89.4 0 0 -0.49,-0.52 l -5.71,-0.05 a 0.98,0.97 -89.7 0 0 -0.98,0.98 l 0.06,34.7 a 0.64,0.61 -84.5 0 0 0.49,0.62 q 1.06,0.23 2.14,0.25 2.52,0.05 2.62,0.04 1.41,-0.13 2.24,-1.35 a 0.56,0.53 -58.9 0 1 0.7,-0.19" id="path31"/>
      <path stroke="#808080" vector-effect="non-scaling-stroke" d="m 372.19,737.84 2.56,17.92 a 0.92,0.85 -2.5 0 0 0.87,0.73 l 5.26,0.21 a 1.39,1.26 -3 0 0 1.44,-1.45 l -4.93,-31.17 a 0.68,0.67 87.2 0 0 -0.61,-0.56 l -4.58,-0.3 a 1.54,1.5 12.8 0 0 -1.51,0.92 l -7.52,18.34 q -0.28,0.68 -0.55,0.03 l -7.75,-18.36 a 0.91,0.75 77.8 0 0 -0.69,-0.55 l -5.29,-0.34 a 0.95,0.89 -83.3 0 0 -0.94,0.8 l -5.06,31.89 a 0.43,0.43 -85.4 0 0 0.42,0.5 l 6.5,0.05 a 0.61,0.59 3.2 0 0 0.6,-0.52 l 2.22,-17.93 q 0.15,-1.18 0.62,-0.11 3.65,8.24 7.03,16.02 0.73,1.69 1.31,2.31 1.73,1.86 3.21,-1.5 3.71,-8.39 7.02,-16.97 0.27,-0.7 0.37,0.04" id="path33"/>
      <path stroke="#808080" vector-effect="non-scaling-stroke" d="M 416.06,749.43 416,724.16 a 0.91,0.91 0.1 0 0 -0.91,-0.91 h -5.96 a 0.88,0.88 0 0 0 -0.88,0.88 v 32 a 0.43,0.42 0 0 0 0.43,0.42 l 16.8,0.17 a 0.77,0.72 -0.4 0 0 0.77,-0.73 l -0.05,-5.42 a 0.51,0.51 90 0 0 -0.51,-0.51 l -9.12,-0.12 a 0.51,0.51 90 0 1 -0.51,-0.51" id="path35"/>
      <path stroke="#808080" vector-effect="non-scaling-stroke" d="m 460.0283,723.6966 a 0.42,0.42 0 0 0 -0.4193,-0.4207 l -6.68,-0.0117 a 0.42,0.42 0 0 0 -0.4207,0.4193 l -0.0566,32.4199 a 0.42,0.42 0 0 0 0.4193,0.4207 l 6.68,0.0117 a 0.42,0.42 0 0 0 0.4207,-0.4193 l 0.0566,-32.4199" id="path37"/>
      <path stroke="#808080" vector-effect="non-scaling-stroke" d="m 493.19,730.32 0.06,25.52 a 0.66,0.65 90 0 0 0.65,0.66 h 6.68 a 0.67,0.67 0 0 0 0.67,-0.67 v -25.38 a 0.89,0.77 1.4 0 1 0.93,-0.76 l 5.13,0.2 a 0.75,0.59 -80.3 0 0 0.63,-0.57 q 0.7,-2.72 0.29,-4.79 a 1.59,1.58 -5.5 0 0 -1.56,-1.28 h -19.76 a 0.66,0.66 0 0 0 -0.66,0.66 v 5.15 a 0.92,0.86 89.4 0 0 0.88,0.92 l 5.57,-0.12 a 0.48,0.46 -0.6 0 1 0.49,0.46" id="path39"/>
      <path stroke="#808080" vector-effect="non-scaling-stroke" d="m 281.71,745.75 -5.64,-10.54 a 1.34,1.28 75.8 0 0 -1.13,-0.71 H 268 a 0.31,0.3 -13.4 0 0 -0.28,0.44 l 9.56,18 a 1.79,1.57 47.6 0 1 0.03,1.64 l -6.76,11.95 a 0.69,0.66 -69.2 0 0 0.42,1 q 4.02,0.85 7.1,0.16 a 1.18,1.06 -80.5 0 0 0.73,-0.58 l 16.81,-31.97 a 0.34,0.3 -73.1 0 0 -0.22,-0.49 l -6.46,-0.32 a 1.59,1.46 -74.6 0 0 -1.43,0.9 l -5.07,10.47 q -0.36,0.74 -0.72,0.05" id="path41"/>
      <path stroke="#d3d5d4" vector-effect="non-scaling-stroke" d="M 554.98,812.95 A 0.95,0.95 0 0 0 554.03,812 H 178.95 a 0.95,0.95 0 0 0 -0.95,0.95 v 0.1 a 0.95,0.95 0 0 0 0.95,0.95 h 375.08 a 0.95,0.95 0 0 0 0.95,-0.95 v -0.1" id="path43"/>
      <path stroke="#d3d5d4" vector-effect="non-scaling-stroke" d="m 320.26,847.3 q 0.48,2.48 2.97,1.58 a 0.86,0.85 83.6 0 0 0.54,-0.68 q 0.45,-3.56 -2.77,-4.7 -2.47,-0.87 -4.3,0.41 -1.51,1.06 -1.93,3.32 -0.94,5.05 4.47,6.85 1.96,0.65 1.45,2.66 -1.16,4.51 -2.99,0.47 a 1.37,0.95 81.7 0 0 -0.64,-0.68 q -1.02,-0.42 -2.1,0 a 0.73,0.69 77.3 0 0 -0.43,0.72 q 0.44,5.22 5.28,4.75 1.62,-0.16 2.62,-1.14 1.14,-1.12 1.36,-2.72 0.25,-1.84 0,-3.78 -0.31,-2.45 -2.79,-3.11 -3.79,-1.01 -2.86,-3.96 a 1.14,0.92 -87.4 0 1 0.62,-0.7 q 0.49,-0.16 0.99,0.01 a 0.97,0.67 88.7 0 1 0.51,0.7" id="path45"/>
      <path stroke="#d3d5d4" vector-effect="non-scaling-stroke" d="m 390.69,848.57 q -4.3,-0.95 -4.52,2.95 -0.12,2.08 -0.14,2.32 -0.18,1.81 0.05,3.61 0.01,0.1 0.11,2.12 0.11,2.36 2.81,2.4 1.5,0.03 4.02,0.03 a 1.53,1.51 89.4 0 0 1.51,-1.56 l -0.34,-16.62 a 0.56,0.45 87.1 0 0 -0.5,-0.56 l -0.72,0.09 q -0.54,0.06 -0.92,-0.06 -0.83,-0.25 -0.8,0.96 0.04,1.97 -0.04,3.93 a 0.44,0.42 7 0 1 -0.52,0.39" id="path47"/>
      <path stroke="#d3d5d4" vector-effect="non-scaling-stroke" d="m 400.92,861.74 q 1.65,0.43 3.1,0.13 0.48,-0.1 0.95,0.05 1.74,0.53 2.91,-0.41 0.86,-0.68 0.99,-2.36 0.28,-3.44 0.13,-6.9 -0.14,-3.21 -2.51,-3.89 a 1.58,1.06 -39.8 0 0 -0.94,0.1 q -2.49,1.06 -1.78,-2.21 0.78,-3.59 -2.47,-3.04 a 0.62,0.61 85 0 0 -0.5,0.61 l 0.01,17.78 a 0.15,0.14 7.9 0 0 0.11,0.14" id="path49"/>
      <path stroke="#d3d5d4" vector-effect="non-scaling-stroke" d="m 371.45,852.06 q 0.08,2.98 0.06,5.96 -0.01,1.93 0.67,2.79 1.06,1.36 3.08,1.04 a 0.85,0.81 3.6 0 0 0.68,-0.57 q 0.35,-1.13 -0.25,-2.22 -1.2,-2.13 -1.19,-2.81 l 0.04,-4.44 a 0.7,0.62 -8.2 0 1 0.51,-0.6 q 1.52,-0.43 1.06,-1.93 a 1.54,0.85 21.4 0 0 -0.61,-0.73 q -1.51,-1.03 -1.12,-3.06 a 0.58,0.53 -76.2 0 0 -0.36,-0.65 q -3.19,-0.93 -2.62,2.41 a 0.78,0.68 71.3 0 1 -0.32,0.77 q -2.39,1.4 -4.91,0.54 a 1.43,1.4 -80.7 0 0 -1.86,1.36 l 0.02,11.26 a 0.74,0.65 -81.8 0 0 0.45,0.68 q 3.46,1.21 2.72,-2.61 -0.3,-1.54 0.09,-4.79 0.18,-1.52 0.87,-2.19 0.96,-0.93 2.49,-0.78 a 0.59,0.56 -87.8 0 1 0.5,0.57" id="path51"/>
      <path stroke="#d3d5d4" vector-effect="non-scaling-stroke" d="m 327.07,861.68 5.44,0.31 a 0.98,0.93 -88.3 0 0 0.99,-0.98 l -0.05,-11.71 a 0.73,0.71 -81.4 0 0 -0.48,-0.67 q -2.83,-0.98 -2.78,2.12 0.06,3.23 0.06,6.45 0,0.66 -0.21,1.05 -0.45,0.86 -1.17,0.34 a 1.32,0.91 -82.5 0 1 -0.43,-0.84 q -0.48,-4.27 -0.19,-6.75 0.39,-3.41 -2.47,-2.38 a 0.74,0.74 -10.3 0 0 -0.48,0.69 l -0.05,10.2 q -0.01,2.06 1.82,2.17" id="path53"/>
      <path stroke="#d3d5d4" vector-effect="non-scaling-stroke" d="m 338.79,861.97 q 1.94,0.55 3.32,-0.42 1.12,-0.79 1.16,-2.67 0.05,-2.14 -0.02,-6.63 -0.07,-4.18 -3.52,-3.71 -1,0.14 -1.98,0.03 -1.02,-0.11 -2.01,0.08 a 0.66,0.63 87.9 0 0 -0.53,0.6 q -0.56,8 0.04,16 a 2.3,1.09 88.7 0 0 1,2 q 2.56,0.56 2,-2 -0.11,-0.5 0.03,-2.94 a 0.4,0.38 10.2 0 1 0.51,-0.34" id="path55"/>
      <path stroke="#d3d5d4" vector-effect="non-scaling-stroke" d="m 348.98,861.76 q 4.15,0.99 4.21,-3.01 0.06,-3.63 -0.12,-7.24 -0.17,-3.34 -3,-2.99 -1.37,0.16 -2.16,0.1 -1.12,-0.08 -2.22,0.01 a 0.6,0.58 88.4 0 0 -0.52,0.57 q -0.29,7.53 -0.18,15.07 0,0.11 -0.1,1.44 -0.16,2.11 2.34,1.54 a 0.88,0.85 -3.9 0 0 0.68,-0.75 l 0.39,-4.23 a 0.56,0.55 -81.2 0 1 0.68,-0.51" id="path57"/>
      <path stroke="#d3d5d4" vector-effect="non-scaling-stroke" d="m 362.9652,852.2972 a 3.77,3.77 0 0 0 -3.7634,-3.7766 l -0.68,-10e-4 a 3.77,3.77 0 0 0 -3.7766,3.7634 l -0.0104,5.94 a 3.77,3.77 0 0 0 3.7634,3.7766 l 0.68,10e-4 a 3.77,3.77 0 0 0 3.7766,-3.7634 l 0.0104,-5.94" id="path59"/>
      <path stroke="#d3d5d4" vector-effect="non-scaling-stroke" d="m 380.04,856.67 2.98,-0.14 a 1.55,1.29 -1.6 0 0 1.48,-1.3 q 0,-1.48 -0.24,-3.45 -0.42,-3.37 -3.94,-3.15 -4.21,0.28 -3.79,4.99 0.2,2.16 -0.13,4.3 -0.22,1.39 0.74,2.6 0.8,1.01 2.15,1.34 2.56,0.62 4.37,-1.29 0.6,-0.64 0.7,-1.44 0.19,-1.63 -1.41,-1.33 -0.39,0.07 -1.64,0.8 -1.61,0.95 -1.74,-1.29 a 0.62,0.51 86.9 0 1 0.47,-0.64" id="path61"/>
      <path stroke="#d3d5d4" vector-effect="non-scaling-stroke" d="m 413.68,853.5 q -0.14,-1.23 -0.65,-3.61 -0.42,-1.96 -3.21,-1.21 a 0.53,0.53 -15.1 0 0 -0.37,0.64 l 3.19,11.61 q 0.63,2.28 -1.58,3.07 -1.54,0.55 -0.7,2.72 a 0.75,0.74 78.7 0 0 0.71,0.48 q 3.28,-0.06 4.18,-3.7 1.7,-6.88 3.38,-13.76 a 0.83,0.72 -66.1 0 0 -0.25,-0.82 q -1.07,-0.83 -2.36,-0.32 a 1.03,0.87 88.5 0 0 -0.57,0.71 l -0.96,4.24 q -0.54,2.37 -0.81,-0.05" id="path63"/>
      <path stroke="#bcd4ed" vector-effect="non-scaling-stroke" d="m 514.62,897.94 q -6.33,-5.11 -12.87,-6.19 -22.11,-3.65 -37.28,11.84 -3.41,3.48 -5.16,6.93 -2.02,3.98 -2.64,8.38 -0.9,6.46 1.9,12.36 4.53,9.55 15.43,12.24 21.16,5.22 37.95,-9.55 10.39,-9.14 9.76,-23.02 a 0.44,0.43 1.8 0 1 0.48,-0.44 q 9.97,0.99 16,-5.69 3.02,-3.35 3.45,-7.43 0.57,-5.57 -3.86,-8.15 -4.36,-2.54 -10.33,-1.1 -7.95,1.91 -12.21,9.69 a 0.42,0.41 -56.3 0 1 -0.62,0.13" id="path65"/>
      <path stroke="#80d6a8" vector-effect="non-scaling-stroke" d="m 197.74,917.63 a 0.77,0.71 5.7 0 0 0.77,-0.58 q 2.17,-12.08 14.44,-14.52 a 0.66,0.59 -6.6 0 0 0.52,-0.59 l -0.17,-9.19 q -0.01,-0.56 -0.31,-0.07 -0.38,0.61 -0.74,1.23 -0.1,0.16 -0.83,1.74 -0.86,1.85 -2.82,2.47 -1.47,0.47 -1.54,0.5 -11.58,4.83 -13.89,17.81 a 0.98,0.92 5.4 0 0 0.95,1.08 l 3.62,0.12" id="path67"/>
      <path stroke="#809da0" vector-effect="non-scaling-stroke" d="m 236.67,913.96 q -4.54,-14.33 -19.36,-16.82 a 0.53,0.44 6 0 0 -0.61,0.41 l -0.1,4.51 a 0.7,0.55 7.3 0 0 0.58,0.59 q 11.38,2.27 14.3,14.59 a 0.68,0.66 82.6 0 0 0.64,0.51 l 9.33,-0.06 q 1.6,-0.01 0.16,-0.76 l -4.36,-2.25 a 1.27,1.06 -89 0 1 -0.58,-0.72" id="path69"/>
      <path stroke="#80d6a8" vector-effect="non-scaling-stroke" d="m 269.1441,914.4517 a 9.19,9.19 0 0 0 -9.1417,-9.238 l -1.34,-0.007 a 9.19,9.19 0 0 0 -9.238,9.1417 l -0.0485,9.2599 a 9.19,9.19 0 0 0 9.1417,9.238 l 1.34,0.007 a 9.19,9.19 0 0 0 9.238,-9.1417 l 0.0485,-9.2599" id="path71"/>
      <path stroke="#808080" vector-effect="non-scaling-stroke" d="m 308.56,922.82 q 0.18,1.74 -1.16,3.53 -1.13,1.5 -2.9,1.99 -3.1,0.86 -5.15,-1.33 -1.39,-1.49 -1.73,-4.42 -0.36,-3.15 -0.08,-6.29 0.33,-3.57 1.93,-5.3 2.43,-2.63 6.48,-0.88 0.07,0.03 1.42,1 1.52,1.09 3.21,-1.77 a 1.27,1.27 -54.6 0 0 -0.27,-1.61 q -4.27,-3.57 -9.34,-2.43 -3.92,0.88 -5.91,3.89 -1.92,2.9 -2.06,7.3 -0.23,7.21 0.25,8.75 2.11,6.79 8.16,7.56 4.14,0.53 7.32,-1.64 3.49,-2.38 4.02,-7.17 0.29,-2.62 -0.23,-5.95 a 0.78,0.77 -87.2 0 0 -0.56,-0.63 q -3.09,-0.85 -6.29,-0.32 -0.45,0.07 -0.96,-0.07 -2.11,-0.61 -2.27,1.1 -0.14,1.55 0.07,2.24 0.45,1.5 3.81,0.8 2.03,-0.42 2.24,1.65" id="path73"/>
      <path stroke="#809092" vector-effect="non-scaling-stroke" d="m 385.34,928.42 q 1.33,-1.89 1.39,-4.42 0.22,-8.38 0.28,-18 a 0.99,0.97 90 0 0 -0.97,-0.99 l -6.24,0.04 a 0.63,0.52 0.9 0 0 -0.63,0.5 l -0.15,2.83 a 1.06,0.92 -5.7 0 0 1.29,0.91 q 2.44,-0.53 2.27,1.42 -0.08,1 -0.08,1.09 0.01,4.1 0.23,8.19 0.51,9.78 -9.31,8.75 a 0.52,0.46 2.8 0 0 -0.57,0.46 l 0.08,3.51 a 0.59,0.45 -3.3 0 0 0.63,0.43 q 1.29,-0.11 3.94,-0.14 2.58,-0.02 4.64,-1.45 1.96,-1.36 3.2,-3.13" id="path75"/>
      <path stroke="#809da0" vector-effect="non-scaling-stroke" d="m 396.31,923.1 q 8.23,0.41 10.8,-6.2 1.24,-3.19 -0.07,-6.17 -1.42,-3.22 -4.6,-4.82 -1.83,-0.91 -5.05,-0.91 -2.59,0 -5.22,0 a 0.67,0.67 0 0 0 -0.67,0.67 l 0.06,26.53 a 0.86,0.82 -76.9 0 0 0.44,0.75 q 1.64,0.85 3.26,0 a 0.9,0.81 77.5 0 0 0.43,-0.77 l 0.12,-8.62 a 0.47,0.46 1.8 0 1 0.5,-0.46" id="path77"/>
      <path stroke="#80d6a8" vector-effect="non-scaling-stroke" d="m 275.72,918.51 q 3.03,2.02 6.36,3.48 1.71,0.76 2.33,1.68 1.11,1.64 0.08,3.19 -0.99,1.49 -3.12,1.78 -2.67,0.36 -5.16,-1.12 -2.33,-1.37 -3.22,2.3 a 0.88,0.88 23.3 0 0 0.38,0.95 q 4.67,2.99 9.35,1.89 4.46,-1.05 6.15,-5.05 1.69,-3.99 -1.54,-7.52 -1.19,-1.31 -3.72,-2.4 -3.39,-1.46 -4.05,-2 -3.8,-3.12 -1.07,-5.37 1.62,-1.34 3.81,-0.94 1.89,0.35 3.91,1.54 a 0.87,0.86 -54.6 0 0 1.09,-0.19 q 1.64,-1.96 1.2,-2.99 -0.23,-0.56 -2.04,-1.41 -2.15,-1.02 -4.96,-1.08 -8.2,-0.17 -8.51,7.75 -0.14,3.59 2.73,5.51" id="path79"/>
      <path stroke="#809da0" vector-effect="non-scaling-stroke" d="m 213.25,915.04 q -2.95,-1.92 -5.8,-3.99 -0.48,-0.35 -0.6,-0.18 a 0.64,0.19 56.7 0 0 0.17,0.57 l 3.73,6.02" id="path81"/>
      <path stroke="#80d6a8" vector-effect="non-scaling-stroke" d="m 210.75,917.46 q -4.37,0.82 -8.79,1.27 -0.23,0.02 -0.4,0.12 -0.65,0.37 0.46,0.47 4.14,0.37 8.18,1.37 a 0.44,0.43 17.8 0 1 0.31,0.58 q -0.91,2.32 -2.6,4.18 -0.24,0.26 -0.36,0.53 -0.79,1.78 0.94,0.27 1.63,-1.42 3.8,-2.78 a 0.8,0.8 -20.7 0 1 1.22,0.55 l 1.24,7.99 q 0.26,1.69 0.5,0 0.46,-3.33 0.94,-7.05 0.02,-0.14 -0.03,-0.92 -0.04,-0.67 0.59,-0.83" id="path83"/>
      <path stroke="#809da0" vector-effect="non-scaling-stroke" d="m 216.75,923.21 q 3.18,1.76 6.16,3.84 0.43,0.3 0.31,-0.12 -0.03,-0.11 -0.11,-0.21 -2.3,-2.75 -3.9,-5.97" id="path85"/>
      <path stroke="#80d6a8" vector-effect="non-scaling-stroke" d="m 219.21,920.75 8.36,-1.44 q 2.08,-0.35 0,-0.64 l -6.97,-0.98 q -2.14,-0.3 -0.79,-2.13 l 2.89,-3.89 q 1.03,-1.39 -0.39,-0.36 l -4.63,3.38 a 0.75,0.74 -23.2 0 1 -1.18,-0.46 q -0.71,-4.09 -1.44,-8.2 -0.2,-1.14 -0.37,0.3 -0.51,4.39 -1.44,8.71" id="path87"/>
      <path stroke="#007348" vector-effect="non-scaling-stroke" d="m 219.21,920.75 q -2.11,-3.78 -5.96,-5.71" id="path89"/>
      <path stroke="#007348" vector-effect="non-scaling-stroke" d="m 216.75,923.21 q -3.6,-2.24 -6,-5.75" id="path91"/>
      <path stroke="#809da0" vector-effect="non-scaling-stroke" d="m 320.19,930.56 q 3.54,2.66 8.66,2.28 0.18,-0.01 1.8,0.04 2.47,0.09 1.6,-3.72 a 1.13,1.12 -5.3 0 0 -1.06,-0.87 q -2,-0.06 -4.41,-0.06 -2.38,0.01 -3.41,-0.68 -1.54,-1.03 -1.98,-3.22 a 0.73,0.71 -5.9 0 1 0.71,-0.85 l 11.71,-0.14 a 0.68,0.66 -81.9 0 0 0.64,-0.5 q 1.11,-4.09 -0.64,-7.4 -2.43,-4.63 -7.05,-4.99 -4.24,-0.34 -7.24,2.57 -2.34,2.26 -2.76,5.69 -0.39,3.23 0.02,6.09 0.5,3.58 3.41,5.76" id="path93"/>
      <path stroke="#809da0" vector-effect="non-scaling-stroke" d="m 356.11,918.82 a 8.24,8.24 0 0 0 -8.24,-8.24 h -1.34 a 8.24,8.24 0 0 0 -8.24,8.24 v 5.84 a 8.24,8.24 0 0 0 8.24,8.24 h 1.34 a 8.24,8.24 0 0 0 8.24,-8.24 v -5.84" id="path95"/>
      <path stroke="#ed8087" vector-effect="non-scaling-stroke" d="m 370.24,920.2 a 3.97,3.97 0 0 0 -3.97,-3.97 3.97,3.97 0 0 0 -3.97,3.97 3.97,3.97 0 0 0 3.97,3.97 3.97,3.97 0 0 0 3.97,-3.97" id="path97"/>
      <path stroke="#809da0" vector-effect="non-scaling-stroke" d="m 188.39,920.92 q 2.1,1.02 3.79,2.33 1.33,1.04 2.16,3.21 4.75,12.38 18.51,14.56 a 0.65,0.6 -85.2 0 0 0.69,-0.63 l 0.11,-3.91 a 0.9,0.72 -83.1 0 0 -0.53,-0.86 Q 200.85,932.3 198.53,921.3 a 0.69,0.6 84 0 0 -0.59,-0.55 l -9.48,-0.16 q -0.78,-0.02 -0.07,0.33" id="path99"/>
      <path stroke="#80d6a8" vector-effect="non-scaling-stroke" d="m 231.35,921.42 q -2.3,11.54 -14.48,14.14 a 0.47,0.46 -6.2 0 0 -0.37,0.45 v 8.67 q 0,2.38 0.82,0.14 0.64,-1.74 1.93,-3.21 0.96,-1.1 3.05,-1.9 11.72,-4.47 14.45,-17.46 0.43,-2.04 -1.4,-1.9 -0.9,0.07 -1.73,0.05 -0.91,-0.02 -1.74,0.32 a 0.99,0.85 86.5 0 0 -0.53,0.7" id="path101"/>
      <path stroke="#808080" vector-effect="non-scaling-stroke" d="m 268.16,634.97 -7.94,17.56 a 0.33,0.33 -77.8 0 0 0.3,0.47 l 15.42,-0.06 a 0.34,0.33 -11.3 0 0 0.32,-0.46 l -7.55,-17.51 q -0.27,-0.62 -0.55,0" id="path103"/>
      <path stroke="#808080" vector-effect="non-scaling-stroke" d="m 548.63,634.8 -8.36,17.68 a 0.33,0.32 -76.4 0 0 0.28,0.47 l 15.37,0.05 a 0.61,0.6 78.1 0 0 0.55,-0.85 l -7.41,-17.34 q -0.21,-0.48 -0.43,-0.01" id="path105"/>
      <path stroke="#808080" vector-effect="non-scaling-stroke" d="m 88.56,628.69 q -4.18,-2.8 -10.72,-2.34 a 1.18,1.17 -2.1 0 0 -1.09,1.17 v 15.64 a 0.55,0.55 2.2 0 0 0.51,0.55 q 4.26,0.25 7.66,-0.6 5.23,-1.3 6.32,-6.56 1.11,-5.33 -2.68,-7.86" id="path107"/>
      <path stroke="#808080" vector-effect="non-scaling-stroke" d="m 244.13,745.47 a 5.47,5.47 0 0 0 -5.47,-5.47 5.47,5.47 0 0 0 -5.47,5.47 5.47,5.47 0 0 0 5.47,5.47 5.47,5.47 0 0 0 5.47,-5.47" id="path109"/>
      <path stroke="#d3d5d4" vector-effect="non-scaling-stroke" d="m 390.2364,858.81 a 3.65,1.1 89.9 0 0 1.0936,-3.6519 3.65,1.1 89.9 0 0 -1.1064,-3.6481 3.65,1.1 89.9 0 0 -1.0936,3.6519 3.65,1.1 89.9 0 0 1.1064,3.6481" id="path111"/>
      <path stroke="#d3d5d4" vector-effect="non-scaling-stroke" d="m 404.9244,858.9199 a 3.67,1.08 90.4 0 0 1.1056,-3.6624 3.67,1.08 90.4 0 0 -1.0544,-3.6774 3.67,1.08 90.4 0 0 -1.1056,3.6624 3.67,1.08 90.4 0 0 1.0544,3.6774" id="path113"/>
      <path stroke="#d3d5d4" vector-effect="non-scaling-stroke" d="m 339.2304,859.0099 a 3.75,1.1 90.3 0 0 1.1196,-3.7441 3.75,1.1 90.3 0 0 -1.0804,-3.7557 3.75,1.1 90.3 0 0 -1.1196,3.7441 3.75,1.1 90.3 0 0 1.0804,3.7557" id="path115"/>
      <path stroke="#d3d5d4" vector-effect="non-scaling-stroke" d="m 350.19,852.73 a 0.92,0.92 0 0 0 -0.92,-0.92 h -0.1 a 0.92,0.92 0 0 0 -0.92,0.92 v 5.1 a 0.92,0.92 0 0 0 0.92,0.92 h 0.1 a 0.92,0.92 0 0 0 0.92,-0.92 v -5.1" id="path117"/>
      <path stroke="#d3d5d4" vector-effect="non-scaling-stroke" d="m 358.78,858.97 a 3.72,1.08 90 0 0 1.08,-3.72 3.72,1.08 90 0 0 -1.08,-3.72 3.72,1.08 90 0 0 -1.08,3.72 3.72,1.08 90 0 0 1.08,3.72" id="path119"/>
      <path stroke="#d3d5d4" vector-effect="non-scaling-stroke" d="m 381.73,852.99 a 1.08,1.08 0 0 0 -1.08,-1.08 1.08,1.08 0 0 0 -1.08,1.08 1.08,1.08 0 0 0 1.08,1.08 1.08,1.08 0 0 0 1.08,-1.08" id="path121"/>
      <path stroke="#bcd4ed" vector-effect="non-scaling-stroke" d="m 534.9553,895.7109 a 7.33,3.99 -27.1 0 0 -8.3429,-0.2128 7.33,3.99 -27.1 0 0 -4.7077,6.891 7.33,3.99 -27.1 0 0 8.3429,0.2128 7.33,3.99 -27.1 0 0 4.7077,-6.891" id="path123"/>
      <path stroke="#bcd4ed" vector-effect="non-scaling-stroke" d="m 514.3468,909.1736 a 26.76,19.28 -19.1 0 0 -31.5956,-9.4622 26.76,19.28 -19.1 0 0 -18.978,26.975 26.76,19.28 -19.1 0 0 31.5956,9.4622 26.76,19.28 -19.1 0 0 18.978,-26.975" id="path125"/>
      <path stroke="#80d6a8" vector-effect="non-scaling-stroke" d="m 264.67,914.68 a 5.09,5.09 0 0 0 -5.09,-5.09 h -0.64 a 5.09,5.09 0 0 0 -5.09,5.09 v 8.68 a 5.09,5.09 0 0 0 5.09,5.09 h 0.64 a 5.09,5.09 0 0 0 5.09,-5.09 v -8.68" id="path127"/>
      <path stroke="#809da0" vector-effect="non-scaling-stroke" d="m 396.43,918.33 q 3.59,1.01 6.07,-1.58 1.82,-1.9 0.84,-4.18 -0.8,-1.85 -2.67,-2.64 -1.88,-0.78 -4.28,-0.37 a 0.83,0.79 84.6 0 0 -0.65,0.82 l 0.09,7.49 a 0.4,0.39 -83.7 0 0 0.3,0.39 q 0.15,0.03 0.3,0.07" id="path129"/>
      <path stroke="#809da0" vector-effect="non-scaling-stroke" d="m 327.78,915.5 q -3.45,-1.83 -6.03,1.75 -1.6,2.22 1.1,2.22 l 6.67,0.03 a 0.72,0.71 82.7 0 0 0.68,-0.9 q -0.56,-2.11 -2.42,-3.1" id="path131"/>
      <path stroke="#809da0" vector-effect="non-scaling-stroke" d="m 351.4593,918.9553 a 4.05,4.05 0 0 0 -4.0074,-4.0922 l -0.5199,-0.005 a 4.05,4.05 0 0 0 -4.0922,4.0073 l -0.0591,5.6397 a 4.05,4.05 0 0 0 4.0074,4.0922 l 0.5199,0.005 a 4.05,4.05 0 0 0 4.0922,-4.0073 l 0.0591,-5.6397" id="path133"/>
      <path stroke="#809da0" vector-effect="non-scaling-stroke" d="m 216.03,919.03 a 1.09,1.09 0 0 0 -1.09,-1.09 1.09,1.09 0 0 0 -1.09,1.09 1.09,1.09 0 0 0 1.09,1.09 1.09,1.09 0 0 0 1.09,-1.09" id="path135"/>
    </g>
    <path fill="#ffffff" d="m 185.46333,73.295039 1.44992,3.29936 c 0.0329,0.0773 0.0997,0.13207 0.17727,0.14552 0.74612,0.12523 1.48695,0.10493 2.2225,-0.0609 0.0672,-0.0149 0.10306,-0.0892 0.0741,-0.15346 l -6.88446,-15.48073 c -0.037,-0.0829 -0.075,-0.0839 -0.11377,-0.003 l -7.36071,15.50458 c -0.0286,0.0628 0.0113,0.13433 0.0767,0.13758 l 2.0029,0.11377 c 0.18192,0.01 0.35713,-0.10459 0.44185,-0.28839 l 1.47638,-3.19088 c 0.0453,-0.097 0.14336,-0.15891 0.25135,-0.15875 l 5.9981,0.0159 c 0.082,2.8e-4 0.15547,0.0469 0.18786,0.11906 z m 74.14948,0.003 1.40229,3.14325 c 0.0957,0.21241 0.2882,0.34598 0.48418,0.33602 l 1.97909,-0.0847 c 0.0658,-0.004 0.10513,-0.0784 0.0767,-0.14552 l -6.92944,-15.52575 c -0.0476,-0.1076 -0.097,-0.1086 -0.14817,-0.003 l -7.28133,15.50988 c -0.0293,0.0621 0.006,0.13485 0.0714,0.14817 0.73554,0.1464 1.47549,0.1658 2.21985,0.0582 0.0807,-0.0113 0.15036,-0.0631 0.18521,-0.13758 l 1.4949,-3.31258 c 0.0336,-0.0757 0.10933,-0.12451 0.19314,-0.12436 l 6.06425,0.0159 c 0.0805,1.7e-4 0.15386,0.0477 0.18786,0.12171 z m 18.20068,2.52412 c 0.66499,0.54857 1.36878,0.90664 2.11138,1.07421 1.87149,0.42157 3.49956,0.11641 4.88421,-0.91546 0.70731,-0.5274 1.24089,-1.17386 1.60072,-1.93939 0.36513,-0.78141 0.54769,-1.62631 0.54769,-2.53471 v -9.34773 c 1.9e-4,-0.2524 -0.22537,-0.45658 -0.50271,-0.45508 l -1.50812,0.008 c -0.13049,-7e-5 -0.23668,0.10022 -0.23813,0.2249 -0.0265,2.36537 -0.0467,4.75456 -0.0608,7.16756 0,0.0211 0.006,0.56441 0.0185,1.62983 0.0106,0.89077 -0.0414,1.50107 -0.1561,1.83092 -0.48507,1.38818 -1.38995,2.15724 -2.71463,2.30717 -0.64382,0.0723 -1.24354,-0.0238 -1.79916,-0.2884 -0.61737,-0.29457 -1.07951,-0.73466 -1.38642,-1.32027 -0.25224,-0.48154 -0.38541,-1.32291 -0.39952,-2.52412 -0.0388,-2.94217 -0.0767,-5.88345 -0.11377,-8.82386 -0.002,-0.0817 -0.062,-0.14682 -0.13494,-0.14552 l -1.98967,0.037 c -0.0707,10e-4 -0.12714,0.065 -0.127,0.14288 v 8.10683 c 0,0.0123 -0.006,0.27427 -0.0185,0.78581 -0.0282,1.07245 0.15965,2.10785 0.56356,3.10621 0.28399,0.70203 0.75847,1.32644 1.42346,1.87325 z M 131.7291,70.673019 c 1.13242,0.0653 2.11931,-0.0317 2.96069,-0.29104 1.1818,-0.36513 2.02318,-1.05393 2.52412,-2.0664 0.45332,-0.91017 0.60237,-1.89265 0.44715,-2.94746 -0.16581,-1.12712 -0.72055,-2.03023 -1.66423,-2.70933 -0.83961,-0.60325 -1.88913,-0.90046 -3.14854,-0.89164 -0.61913,0.003 -0.93398,0.005 -0.94456,0.005 -0.81492,-0.0159 -1.62896,-0.0132 -2.44211,0.008 -0.0725,10e-4 -0.13089,0.0598 -0.13229,0.1323 -0.0988,4.88068 -0.10407,9.76048 -0.0159,14.63939 0.002,0.0788 0.0546,0.14668 0.12965,0.16669 0.39863,0.10231 0.8008,0.12347 1.2065,0.0635 0.0705,-0.009 0.25047,-0.0115 0.53975,-0.008 0.29809,0.005 0.42333,-0.17987 0.3757,-0.55562 -0.14287,-1.11478 -0.13494,-2.92277 0.0238,-5.42396 0.004,-0.0717 0.0671,-0.12632 0.14023,-0.12171 z m 24.20937,3.73063 -0.0159,-12.44865 c 5.9e-4,-0.14307 -0.12697,-0.25739 -0.28045,-0.25135 l -1.80446,0.0741 c -0.12852,0.006 -0.2299,0.10472 -0.23019,0.22489 v 14.5124 c -5e-5,0.12171 0.0943,0.22079 0.21167,0.22225 l 6.35264,0.0159 c 0.0769,1.1e-4 0.14003,-0.0595 0.14288,-0.13494 l 0.0582,-1.82298 c 0.003,-0.07 -0.0565,-0.1292 -0.13229,-0.13229 l -4.16719,-0.12436 c -0.0749,-10e-4 -0.13492,-0.0614 -0.13494,-0.13493 z m 49.3104,-10.47486 c 0.23283,0.0123 0.46567,0.0194 0.6985,0.0212 0.0731,0 0.13229,0.058 0.13229,0.12964 v 12.50421 c 0,0.0789 0.058,0.14288 0.12965,0.14288 l 1.98966,0.0132 c 0.13538,0.001 0.24594,-0.1186 0.24607,-0.26723 l -0.0185,-12.32694 c -10e-4,-0.0732 0.0556,-0.136 0.1323,-0.14552 1.0354,-0.11113 2.07168,-0.13143 3.10885,-0.0609 0.0794,0.006 0.14739,-0.0497 0.14817,-0.1217 v -1.95527 c 0,-0.0701 -0.0663,-0.127 -0.14817,-0.127 l -8.78417,-0.0159 c -0.0751,-5.9e-4 -0.13878,0.0551 -0.14816,0.12965 -0.0935,0.65793 -0.0891,1.31409 0.0132,1.9685 0.0122,0.0754 0.0786,0.12921 0.15346,0.12435 0.7814,-0.0494 1.56368,-0.0538 2.34685,-0.0132 z m 24.70679,3.66183 -0.0159,-3.55864 c 0,-0.0731 0.0592,-0.13229 0.1323,-0.13229 l 5.5536,0.0185 c 0.12323,0.002 0.22707,-0.0916 0.23813,-0.21431 0.0635,-0.71967 0.0344,-1.33438 -0.0873,-1.84415 -0.0173,-0.0731 -0.0853,-0.12465 -0.16404,-0.12435 l -7.85283,-0.003 c -0.0745,0 -0.13494,0.0592 -0.13494,0.13229 v 14.72142 c -5e-5,0.0769 0.0607,0.14002 0.13758,0.14287 2.66347,0.1076 5.30754,0.11027 7.93221,0.008 0.0815,-0.003 0.14653,-0.0631 0.14817,-0.13758 l 0.0397,-1.84944 c 0.001,-0.074 -0.0629,-0.13486 -0.14288,-0.13494 h -5.56154 c -0.12817,-2e-5 -0.23167,-0.10232 -0.23019,-0.22754 l 0.037,-4.3524 c 0,-0.076 0.0616,-0.13758 0.13759,-0.13758 h 5.4266 c 0.0735,7e-5 0.1335,-0.0564 0.13494,-0.127 l 0.0291,-1.91823 c 0,-0.0716 -0.0616,-0.12964 -0.13758,-0.12964 h -5.48746 c -0.0731,0 -0.13229,-0.0592 -0.13229,-0.1323 z M 173.31895,98.04417 c 1.45345,0.78317 2.63614,0.70555 3.54807,-0.23284 0.60854,-0.62794 0.93486,-1.39964 0.97895,-2.3151 0.0494,-1.02482 -0.32632,-1.8609 -1.12712,-2.50825 -0.52388,-0.42333 -1.0795,-0.64647 -1.66688,-0.6694 -0.66322,-0.0282 -1.26823,0.18788 -1.81504,0.64823 -0.0688,0.0582 -0.10407,0.0432 -0.10583,-0.045 l -0.0952,-4.000501 c -0.001,-0.0763 -0.0591,-0.13747 -0.12965,-0.13758 l -1.51077,-0.0132 c -0.14276,-10e-4 -0.25928,0.11505 -0.25929,0.25929 l 0.0159,9.181041 c 2.9e-4,0.0804 0.0545,0.14893 0.12965,0.16405 0.18697,0.0405 0.37571,0.0626 0.56621,0.0661 0.4445,0.009 0.67556,0.0123 0.6932,0.0106 0.24871,-0.0229 0.44627,-0.14199 0.59267,-0.35718 0.0426,-0.062 0.12226,-0.0837 0.18521,-0.0503 z m 36.43048,-4.61963 0.67733,4.74133 c 0.0157,0.10767 0.11264,0.18898 0.23019,0.19315 l 1.39171,0.0556 c 0.23031,0.008 0.41349,-0.17693 0.381,-0.38364 l -1.3044,-8.247071 c -0.0142,-0.081 -0.0806,-0.14194 -0.16139,-0.14816 l -1.21179,-0.0794 c -0.17374,-0.0112 -0.33431,0.0866 -0.39952,0.24342 l -1.98967,4.852461 c -0.0494,0.11994 -0.0979,0.12261 -0.14552,0.008 l -2.05052,-4.857751 c -0.0353,-0.0839 -0.10613,-0.14038 -0.18256,-0.14553 l -1.39965,-0.09 c -0.12062,-0.007 -0.22807,0.0844 -0.24871,0.21166 l -1.33879,8.437571 c -0.0114,0.0688 0.0413,0.1316 0.11113,0.13229 l 1.71979,0.0132 c 0.0814,-4.7e-4 0.14939,-0.0594 0.15875,-0.13759 l 0.58737,-4.74398 c 0.0265,-0.20813 0.0812,-0.21783 0.16404,-0.0291 0.64382,1.45345 1.26383,2.86632 1.86002,4.23862 0.12877,0.2981 0.2443,0.50183 0.34661,0.61119 0.30515,0.32809 0.58826,0.1958 0.84931,-0.39687 0.6544,-1.47991 1.27353,-2.97657 1.85738,-4.48998 0.0476,-0.12347 0.0802,-0.11994 0.0979,0.0106 z m 11.60727,3.06652 -0.0159,-6.686021 c 0,-0.13297 -0.1078,-0.24077 -0.24077,-0.24077 h -1.57692 c -0.12859,0 -0.23283,0.10424 -0.23283,0.23283 v 8.466671 c 0,0.0614 0.0509,0.11113 0.11377,0.11113 l 4.445,0.045 c 0.11355,-9e-5 0.2052,-0.087 0.20373,-0.19314 l -0.0132,-1.43404 c 0,-0.0745 -0.0604,-0.13494 -0.13494,-0.13494 l -2.413,-0.0317 c -0.0745,0 -0.13494,-0.0604 -0.13494,-0.13494 z m 11.63328,-6.808631 c 1e-4,-0.0614 -0.0496,-0.11121 -0.11094,-0.11131 l -1.76742,-0.003 c -0.0614,-10e-5 -0.11121,0.0496 -0.11131,0.11094 l -0.015,8.577761 c -1e-4,0.0614 0.0496,0.11121 0.11094,0.11131 l 1.76742,0.003 c 0.0614,1e-4 0.11121,-0.0496 0.11131,-0.11094 z m 8.77403,1.752441 0.0159,6.75217 c 0,0.0965 0.077,0.17463 0.17198,0.17463 h 1.76741 c 0.0979,1e-5 0.17728,-0.0794 0.17728,-0.17727 v -6.71513 c 6.2e-4,-0.11575 0.11242,-0.20711 0.24606,-0.20108 l 1.35731,0.0529 c 0.0739,0.003 0.14344,-0.0602 0.16669,-0.15081 0.12347,-0.47978 0.14904,-0.902231 0.0767,-1.267351 -0.038,-0.19669 -0.21117,-0.33874 -0.41275,-0.33867 h -5.22817 c -0.0964,0 -0.17462,0.0782 -0.17462,0.17463 v 1.362601 c 1.5e-4,0.13654 0.10523,0.2464 0.23283,0.24342 l 1.47373,-0.0318 c 0.0712,-10e-4 0.12972,0.0534 0.12964,0.1217 z m -55.95408,4.08253 -1.49225,-2.78871 c -0.0605,-0.11399 -0.17504,-0.18599 -0.29898,-0.18786 h -1.8362 c -0.0615,1.6e-4 -0.10179,0.0635 -0.0741,0.11642 l 2.52941,4.7625 c 0.0773,0.14331 0.0803,0.30752 0.008,0.43392 l -1.78858,3.16177 c -0.0593,0.10704 -0.004,0.23991 0.11112,0.26458 0.70909,0.14993 1.33527,0.16403 1.87855,0.0423 0.0805,-0.0185 0.15097,-0.0745 0.19314,-0.15345 l 4.44765,-8.45873 c 0.03,-0.0572 -7.7e-4,-0.12569 -0.0582,-0.12965 l -1.70921,-0.0847 c -0.15588,-0.008 -0.30499,0.0861 -0.37836,0.23813 l -1.34143,2.77019 c -0.0635,0.13053 -0.127,0.13493 -0.1905,0.0132 z m 72.30269,17.78 c 0,-0.13882 -0.11254,-0.25136 -0.25136,-0.25136 h -99.23991 c -0.13882,0 -0.25136,0.11254 -0.25135,0.25136 v 0.0265 c -1e-5,0.13882 0.11253,0.25136 0.25135,0.25136 h 99.23991 c 0.13882,0 0.25136,-0.11254 0.25136,-0.25136 z m -62.103,9.08843 c 0.0847,0.43745 0.3466,0.57679 0.78581,0.41804 0.0765,-0.0291 0.13121,-0.098 0.14288,-0.17991 0.0794,-0.62795 -0.16493,-1.04246 -0.7329,-1.24354 -0.43568,-0.15346 -0.81492,-0.1173 -1.13771,0.10848 -0.26634,0.18697 -0.43656,0.47977 -0.51064,0.87841 -0.16581,0.89077 0.22842,1.4949 1.18269,1.8124 0.34572,0.11465 0.4736,0.34925 0.38364,0.70379 -0.20461,0.79551 -0.46831,0.83696 -0.7911,0.12435 -0.0389,-0.0881 -0.10022,-0.15316 -0.16934,-0.17991 -0.17991,-0.0741 -0.36512,-0.0741 -0.55562,0 -0.0739,0.0296 -0.11995,0.10669 -0.11377,0.1905 0.0776,0.92075 0.54328,1.33967 1.397,1.25677 0.28575,-0.0282 0.51682,-0.12874 0.69321,-0.30163 0.20108,-0.19755 0.32102,-0.43744 0.35983,-0.71966 0.0441,-0.32456 0.0441,-0.65794 0,-1.00013 -0.0547,-0.43215 -0.30074,-0.70644 -0.73819,-0.82285 -0.66851,-0.17815 -0.92075,-0.5274 -0.75671,-1.04775 0.0283,-0.0899 0.0892,-0.15871 0.16405,-0.18521 0.0864,-0.0282 0.17374,-0.0272 0.26193,0.003 0.0649,0.021 0.117,0.0924 0.13494,0.18521 z m 18.6346,0.33602 c -0.75847,-0.16757 -1.15711,0.0926 -1.19591,0.78052 -0.0212,0.36689 -0.0336,0.57151 -0.0371,0.61384 -0.0317,0.31926 -0.0273,0.63764 0.0132,0.95514 0.002,0.0177 0.0117,0.20464 0.0291,0.56092 0.0194,0.41628 0.26723,0.62795 0.74348,0.635 0.26458,0.005 0.61912,0.008 1.06362,0.008 0.22379,1.1e-4 0.40397,-0.18604 0.39952,-0.41275 l -0.09,-4.39738 c -0.001,-0.0872 -0.0626,-0.15586 -0.13229,-0.14816 l -0.1905,0.0238 c -0.0953,0.0106 -0.17638,0.005 -0.24341,-0.0159 -0.14641,-0.0441 -0.21696,0.0406 -0.21167,0.254 0.007,0.34749 0.004,0.69409 -0.0106,1.03982 -0.003,0.0676 -0.0679,0.11636 -0.13759,0.10318 z m 2.70669,3.48457 c 0.29104,0.0759 0.56444,0.0873 0.82021,0.0344 0.0847,-0.0177 0.16845,-0.0133 0.25135,0.0132 0.30692,0.0935 0.56357,0.0573 0.76994,-0.10848 0.15169,-0.11995 0.23901,-0.32809 0.26194,-0.62442 0.0494,-0.60677 0.0609,-1.21531 0.0344,-1.82562 -0.0247,-0.56621 -0.24603,-0.90928 -0.6641,-1.02923 -0.0718,-0.0204 -0.16011,-0.011 -0.24871,0.0265 -0.43921,0.18697 -0.59619,-0.008 -0.47096,-0.58473 0.13759,-0.63323 -0.0802,-0.90134 -0.65352,-0.80433 -0.0768,0.0141 -0.1325,0.0821 -0.13229,0.16139 l 0.003,4.70429 c -3.6e-4,0.017 0.0116,0.0322 0.0291,0.037 z m -7.79727,-2.56117 c 0.0141,0.52564 0.0194,1.05128 0.0159,1.57692 -0.002,0.34043 0.0571,0.58649 0.17728,0.73818 0.18697,0.23989 0.4586,0.33162 0.81491,0.27517 0.0857,-0.0128 0.15573,-0.0715 0.17992,-0.15081 0.0617,-0.19932 0.0397,-0.39511 -0.0661,-0.58738 -0.21167,-0.37571 -0.31662,-0.62353 -0.31485,-0.74348 l 0.0106,-1.17475 c 0.002,-0.0724 0.0566,-0.13685 0.13494,-0.15875 0.26811,-0.0759 0.3616,-0.24606 0.28046,-0.51064 -0.0188,-0.0663 -0.0769,-0.13573 -0.1614,-0.19315 -0.26635,-0.18168 -0.36512,-0.45155 -0.29633,-0.80962 0.0146,-0.0772 -0.0265,-0.15139 -0.0953,-0.17198 -0.56268,-0.16404 -0.79375,0.0485 -0.69321,0.63764 0.0143,0.0846 -0.0195,0.1658 -0.0847,0.20373 -0.42157,0.24695 -0.8546,0.29457 -1.2991,0.14288 -0.24049,-0.0835 -0.49159,0.10011 -0.49213,0.35983 l 0.005,2.97921 c 2.8e-4,0.0842 0.0483,0.15677 0.11906,0.17992 0.61031,0.21343 0.8502,-0.0168 0.71967,-0.69057 -0.0529,-0.27164 -0.045,-0.69409 0.0238,-1.26735 0.0317,-0.26811 0.10846,-0.46126 0.23019,-0.57944 0.16933,-0.16404 0.38894,-0.23283 0.65881,-0.20637 0.0739,0.008 0.13047,0.0726 0.13229,0.15081 z m -11.74221,2.54529 1.43934,0.082 c 0.14173,0.009 0.26177,-0.10964 0.26193,-0.25929 l -0.0132,-3.09827 c -0.002,-0.0809 -0.0524,-0.15167 -0.127,-0.17727 -0.49918,-0.17286 -0.74436,0.0141 -0.73554,0.56091 0.0106,0.56974 0.0159,1.1386 0.0159,1.70657 0,0.11641 -0.0185,0.20902 -0.0556,0.27781 -0.0794,0.15169 -0.18256,0.18169 -0.30956,0.09 -0.0604,-0.0436 -0.10197,-0.12473 -0.11377,-0.22225 -0.0847,-0.75318 -0.10143,-1.34849 -0.0503,-1.78594 0.0688,-0.60149 -0.14905,-0.81139 -0.65352,-0.62971 -0.0761,0.0286 -0.1267,0.10124 -0.127,0.18257 l -0.0132,2.69874 c -0.002,0.36337 0.15878,0.55475 0.48154,0.57415 z m 3.10092,0.0767 c 0.34219,0.097 0.635,0.06 0.87842,-0.11113 0.19755,-0.13935 0.29986,-0.37482 0.30691,-0.70643 0.009,-0.37747 0.007,-0.9622 -0.005,-1.75419 -0.0123,-0.73731 -0.32279,-1.06451 -0.93133,-0.9816 -0.17639,0.0247 -0.35101,0.0273 -0.52388,0.008 -0.17991,-0.0194 -0.35718,-0.0123 -0.53181,0.0212 -0.0763,0.0123 -0.13437,0.0781 -0.14023,0.15875 -0.0988,1.41111 -0.0952,2.82222 0.0106,4.23333 0.0216,0.27988 0.13109,0.49892 0.26459,0.52917 0.45155,0.0988 0.62794,-0.0776 0.52916,-0.52917 -0.0194,-0.0882 -0.0168,-0.34748 0.008,-0.77787 0.003,-0.0651 0.0692,-0.10924 0.13494,-0.09 z m 2.6961,-0.0556 c 0.73201,0.17462 1.10331,-0.0908 1.1139,-0.7964 0.0106,-0.64029 0,-1.27882 -0.0318,-1.91558 -0.03,-0.58914 -0.29458,-0.85284 -0.79375,-0.79111 -0.24165,0.0282 -0.43215,0.037 -0.5715,0.0265 -0.19756,-0.0141 -0.39335,-0.0131 -0.58738,0.003 -0.0757,0.008 -0.1343,0.0721 -0.13758,0.15081 -0.0511,1.32821 -0.067,2.6573 -0.0476,3.98727 0,0.0194 -0.009,0.1464 -0.0265,0.381 -0.0282,0.37218 0.17816,0.508 0.61913,0.40746 0.0978,-0.022 0.17025,-0.10196 0.17991,-0.19844 l 0.10319,-1.11919 c 0.006,-0.0918 0.0921,-0.15635 0.17992,-0.13493 z m 3.70025,-2.5037 c 9.7e-4,-0.55089 -0.44484,-0.99826 -0.99573,-0.99923 l -0.17992,-2.6e-4 c -0.55089,-9.6e-4 -0.99825,0.44484 -0.99922,0.99573 l -0.003,1.57163 c -9.6e-4,0.55089 0.44484,0.99825 0.99573,0.99922 l 0.17992,2.7e-4 c 0.55089,9.6e-4 0.99826,-0.44485 0.99922,-0.99574 z m 4.51771,1.15697 0.78846,-0.037 c 0.21887,-0.0101 0.39132,-0.16157 0.39158,-0.34396 0,-0.26106 -0.0212,-0.56533 -0.0635,-0.91281 -0.0741,-0.59443 -0.42157,-0.87225 -1.04246,-0.83344 -0.74259,0.0494 -1.07685,0.48949 -1.00277,1.32027 0.0353,0.381 0.0238,0.76024 -0.0344,1.13771 -0.0388,0.24518 0.0265,0.47448 0.19579,0.68791 0.14111,0.17815 0.33073,0.29634 0.56885,0.35455 0.45156,0.10936 0.83697,-0.004 1.15623,-0.34132 0.10583,-0.11289 0.16757,-0.23989 0.18521,-0.381 0.0335,-0.28751 -0.0908,-0.40481 -0.37306,-0.35189 -0.0688,0.0123 -0.21343,0.0829 -0.43392,0.21166 -0.28399,0.16757 -0.43744,0.0538 -0.46037,-0.34131 -0.004,-0.0891 0.0512,-0.1643 0.12435,-0.16933 z m 8.90058,-0.83873 c -0.0247,-0.21696 -0.082,-0.53534 -0.17198,-0.95515 -0.0741,-0.34572 -0.35718,-0.45243 -0.84931,-0.32014 -0.0731,0.0206 -0.11651,0.0957 -0.0979,0.16933 l 0.84402,3.07181 c 0.11112,0.40217 -0.0282,0.67292 -0.41805,0.81227 -0.27163,0.097 -0.33337,0.3369 -0.1852,0.71967 0.0301,0.0781 0.10525,0.12888 0.18785,0.127 0.57855,-0.0106 0.94721,-0.33692 1.10596,-0.97896 0.29986,-1.21355 0.59796,-2.42711 0.89429,-3.64066 0.0211,-0.0851 -0.005,-0.17046 -0.0662,-0.21696 -0.18873,-0.14641 -0.39687,-0.17464 -0.62441,-0.0847 -0.0742,0.028 -0.13092,0.0987 -0.15081,0.18786 l -0.254,1.12183 c -0.0952,0.41804 -0.16669,0.41364 -0.21432,-0.0132 z m 26.70704,11.75808 c -1.11654,-0.90135 -2.2516,-1.44727 -3.40518,-1.63777 -3.89996,-0.64382 -7.18785,0.4004 -9.86367,3.13267 -0.60149,0.61383 -1.05657,1.22502 -1.36525,1.83356 -0.35631,0.70203 -0.58914,1.4411 -0.6985,2.21721 -0.15875,1.13947 0.009,2.22956 0.50271,3.27025 0.79904,1.68451 2.15988,2.76401 4.08252,3.2385 3.73239,0.92075 7.07937,0.0785 10.04094,-2.52677 1.83268,-1.61219 2.69346,-3.64243 2.58233,-6.09071 -0.002,-0.0682 0.0574,-0.12275 0.127,-0.11642 1.7586,0.17463 3.16971,-0.3272 4.23333,-1.50548 0.5327,-0.5909 0.83697,-1.24618 0.91282,-1.96585 0.10054,-0.98249 -0.23989,-1.70127 -1.0213,-2.15635 -0.76905,-0.44803 -1.6801,-0.54505 -2.73314,-0.29105 -1.40229,0.33691 -2.47915,1.19151 -3.23056,2.56382 -0.0335,0.06 -0.11171,0.0764 -0.16405,0.0344 z m -83.84116,5.20965 c 0.10041,0.003 0.18691,-0.0623 0.20373,-0.15346 0.38276,-2.13078 1.65629,-3.41136 3.82058,-3.84175 0.0803,-0.0174 0.13766,-0.0824 0.13759,-0.1561 l -0.045,-2.43153 c -0.002,-0.0988 -0.0291,-0.10494 -0.082,-0.0185 -0.067,0.1076 -0.1323,0.21608 -0.1958,0.32544 -0.0176,0.0282 -0.0908,0.18166 -0.2196,0.46038 -0.15169,0.32632 -0.4004,0.54416 -0.74612,0.65352 -0.2593,0.0829 -0.39512,0.127 -0.40746,0.13229 -2.04259,0.85196 -3.26761,2.4227 -3.67507,4.71223 -0.0256,0.14634 0.0933,0.28148 0.25136,0.28575 z m 10.30023,-0.97102 c -0.80081,-2.52765 -2.50825,-4.01108 -5.12233,-4.45029 -0.0841,-0.0136 -0.16028,0.0376 -0.1614,0.10847 l -0.0265,1.19328 c -0.003,0.0728 0.0625,0.13941 0.15346,0.1561 2.0073,0.4004 3.26848,1.68716 3.78354,3.86027 0.0204,0.0791 0.0899,0.13454 0.16933,0.13494 l 2.46857,-0.0159 c 0.28222,-0.002 0.29633,-0.069 0.0423,-0.20108 l -1.15359,-0.59531 c -0.071,-0.0354 -0.12645,-0.10428 -0.15346,-0.1905 z m 8.59211,0.13009 c 0.007,-1.34287 -1.07588,-2.43718 -2.41875,-2.44422 l -0.35454,-0.002 c -1.34287,-0.007 -2.43718,1.07587 -2.44422,2.41874 l -0.0128,2.45002 c -0.007,1.34287 1.07588,2.43718 2.41874,2.44422 l 0.35454,0.002 c 1.34287,0.007 2.43719,-1.07587 2.44423,-2.41874 z m 10.42879,2.21412 c 0.0318,0.30691 -0.0706,0.61824 -0.30692,0.93397 -0.19932,0.26459 -0.45508,0.4401 -0.76729,0.52653 -0.54681,0.15169 -1.00101,0.0344 -1.36261,-0.3519 -0.24518,-0.26282 -0.39775,-0.65264 -0.45773,-1.16946 -0.0635,-0.55563 -0.0706,-1.11037 -0.0212,-1.66423 0.0582,-0.62971 0.22843,-1.09714 0.51065,-1.40229 0.42862,-0.4639 1.00012,-0.54151 1.7145,-0.23283 0.0123,0.005 0.13758,0.0935 0.37571,0.26458 0.26811,0.19227 0.55121,0.0362 0.84931,-0.46831 0.0827,-0.14052 0.0526,-0.32012 -0.0714,-0.42598 -0.75318,-0.62971 -1.57692,-0.84402 -2.47121,-0.64294 -0.69144,0.15522 -1.21267,0.4983 -1.56368,1.02923 -0.33867,0.51153 -0.52035,1.15535 -0.54505,1.93146 -0.0406,1.27176 -0.0185,2.04346 0.0662,2.3151 0.37218,1.19768 1.09185,1.86443 2.159,2.00025 0.73025,0.0935 1.37584,-0.0511 1.93675,-0.43391 0.6156,-0.41981 0.97014,-1.05216 1.06363,-1.89707 0.0511,-0.46213 0.0309,-0.98689 -0.0609,-1.57427 -0.0126,-0.0803 -0.0706,-0.1456 -0.14817,-0.16668 -0.54504,-0.14993 -1.09978,-0.17817 -1.66423,-0.0847 -0.0794,0.0123 -0.16404,0.006 -0.254,-0.0185 -0.37218,-0.1076 -0.57238,-0.0106 -0.6006,0.29104 -0.0247,0.2734 -0.0185,0.47096 0.0185,0.59267 0.0794,0.26458 0.41539,0.33513 1.00806,0.21166 0.35807,-0.0741 0.55563,0.0714 0.59267,0.43657 z m 20.3147,1.48166 c 0.2346,-0.33337 0.35719,-0.72319 0.36777,-1.16946 0.0388,-1.47813 0.0635,-3.06563 0.0741,-4.7625 0,-0.14466 -0.11491,-0.26193 -0.25665,-0.26193 l -1.651,0.0106 c -0.09,-4.9e-4 -0.16377,0.0581 -0.16669,0.13229 l -0.0397,0.74877 c -0.009,0.1609 0.16093,0.2805 0.34131,0.24077 0.43039,-0.0935 0.63059,0.0318 0.6006,0.37571 -0.0141,0.17639 -0.0212,0.27252 -0.0212,0.2884 0.002,0.72319 0.0223,1.4455 0.0609,2.16693 0.09,1.72509 -0.73113,2.49679 -2.46327,2.31511 -0.0818,-0.008 -0.15225,0.049 -0.15081,0.12171 l 0.0212,0.92868 c 8.1e-4,0.0686 0.0771,0.12064 0.16669,0.11378 0.22754,-0.0194 0.57503,-0.0318 1.04246,-0.0371 0.45508,-0.003 0.8643,-0.13121 1.22767,-0.38364 0.34572,-0.23989 0.62794,-0.51594 0.84666,-0.82815 z m 2.90248,-1.40758 c 1.45168,0.0723 2.40418,-0.47449 2.8575,-1.64042 0.21872,-0.56268 0.21255,-1.10684 -0.0185,-1.63248 -0.25047,-0.56797 -0.65617,-0.99307 -1.21708,-1.27529 -0.32279,-0.16051 -0.76818,-0.24077 -1.33615,-0.24077 h -1.38112 c -0.0979,-1e-5 -0.17728,0.0794 -0.17728,0.17727 l 0.0159,7.0194 c -1e-5,0.0844 0.0448,0.16079 0.11642,0.19843 0.28927,0.14993 0.57679,0.14993 0.86254,0 0.0702,-0.0379 0.11394,-0.1162 0.11377,-0.20372 l 0.0318,-2.28071 c -2.5e-4,-0.0704 0.0605,-0.1263 0.13229,-0.12171 z m -31.9061,-1.21444 c 0.53446,0.35631 1.09537,0.66322 1.68275,0.92075 0.30162,0.13405 0.50712,0.28222 0.61648,0.4445 0.19579,0.28928 0.20285,0.57062 0.0212,0.84402 -0.17463,0.26282 -0.44979,0.41981 -0.8255,0.47096 -0.47096,0.0635 -0.92604,-0.0352 -1.36525,-0.29633 -0.41099,-0.24165 -0.69497,-0.0388 -0.85196,0.60854 -0.0236,0.0967 0.0168,0.19766 0.10054,0.25135 0.82374,0.52741 1.64835,0.6941 2.47385,0.50007 0.7867,-0.18521 1.3291,-0.6306 1.62719,-1.33615 0.2981,-0.70379 0.16228,-1.36702 -0.40746,-1.98967 -0.2099,-0.23107 -0.53798,-0.44273 -0.98425,-0.635 -0.59795,-0.25753 -0.95514,-0.43391 -1.07156,-0.52916 -0.67028,-0.55033 -0.76464,-1.02394 -0.2831,-1.42082 0.28575,-0.23636 0.62177,-0.31926 1.00806,-0.2487 0.33337,0.0617 0.67822,0.19755 1.03452,0.40745 0.0949,0.0551 0.21615,0.0339 0.2884,-0.0503 0.28927,-0.34572 0.39511,-0.60942 0.3175,-0.7911 -0.0406,-0.0988 -0.22049,-0.22313 -0.53975,-0.37306 -0.37924,-0.17992 -0.81668,-0.27517 -1.31234,-0.28575 -1.44639,-0.03 -2.19692,0.65351 -2.2516,2.05052 -0.0247,0.63323 0.21608,1.11918 0.72231,1.45785 z m -16.52852,-0.9181 c -0.52035,-0.33867 -1.03188,-0.69056 -1.53459,-1.05569 -0.0847,-0.0617 -0.13758,-0.0776 -0.15875,-0.0476 -0.0157,0.0195 0.003,0.0825 0.045,0.15082 l 0.9869,1.59279 c -0.77082,0.14464 -1.54605,0.25665 -2.32569,0.33602 -0.0406,0.003 -0.0758,0.0139 -0.10583,0.0317 -0.11465,0.0653 -0.0741,0.10672 0.12171,0.12435 0.73025,0.0653 1.45168,0.18609 2.16429,0.36248 0.0689,0.0166 0.10766,0.0891 0.082,0.15346 -0.16051,0.40922 -0.38982,0.77787 -0.68792,1.10596 -0.0423,0.0459 -0.0741,0.0926 -0.0952,0.14023 -0.13934,0.31397 -0.0564,0.33777 0.24871,0.0714 0.28752,-0.25047 0.62265,-0.49566 1.00542,-0.73555 0.1286,-0.0819 0.29902,-0.005 0.32279,0.14553 l 0.32808,2.11402 c 0.0459,0.29809 0.09,0.29809 0.13229,0 0.0811,-0.58738 0.16405,-1.20915 0.24871,-1.86532 0.003,-0.0247 9e-4,-0.1058 -0.008,-0.24341 -0.007,-0.11818 0.045,-0.19138 0.15611,-0.21961 0.56091,0.31045 1.10419,0.64911 1.62983,1.016 0.0759,0.0529 0.10319,0.0424 0.082,-0.0317 -0.005,-0.0194 -0.015,-0.0379 -0.0291,-0.0556 -0.4057,-0.48507 -0.74965,-1.01159 -1.03188,-1.57956 l 2.21192,-0.381 c 0.36689,-0.0617 0.36689,-0.11818 0,-0.16934 l -1.84414,-0.25929 c -0.37748,-0.0529 -0.44715,-0.24079 -0.20903,-0.56356 l 0.76465,-1.02923 c 0.18168,-0.24518 0.14729,-0.27691 -0.10319,-0.0952 l -1.22502,0.89429 c -0.11853,0.0872 -0.2871,0.0215 -0.31221,-0.12171 -0.12523,-0.72143 -0.25223,-1.44462 -0.381,-2.16958 -0.0353,-0.20108 -0.0679,-0.17461 -0.0979,0.0794 -0.09,0.77435 -0.21695,1.54252 -0.381,2.30452 z m 28.29454,4.10633 c 0.62442,0.46919 1.38818,0.67028 2.29129,0.60325 0.0318,-0.002 0.1905,0.002 0.47625,0.0106 0.43568,0.0159 0.57679,-0.31222 0.42333,-0.98425 -0.03,-0.13095 -0.14504,-0.22541 -0.28045,-0.23018 -0.35278,-0.0106 -0.74172,-0.0159 -1.16682,-0.0159 -0.4198,0.002 -0.72054,-0.058 -0.90223,-0.17992 -0.27163,-0.18168 -0.44626,-0.46566 -0.52387,-0.85195 -0.0231,-0.11525 0.0671,-0.22322 0.18785,-0.2249 l 3.09827,-0.037 c 0.0786,-1.2e-4 0.14793,-0.0543 0.16934,-0.13229 0.19579,-0.72143 0.13935,-1.37407 -0.16934,-1.95792 -0.42862,-0.81668 -1.05039,-1.25677 -1.86531,-1.32027 -0.74789,-0.06 -1.38641,0.16666 -1.91558,0.67998 -0.41275,0.39864 -0.65617,0.90047 -0.73025,1.50548 -0.0688,0.56973 -0.067,1.10684 0.005,1.61131 0.0882,0.63147 0.38894,1.13947 0.90223,1.524 z m 9.50383,-3.10621 c 0,-1.20407 -0.9761,-2.18016 -2.18016,-2.18016 h -0.35455 c -1.20407,0 -2.18016,0.97609 -2.18016,2.18016 v 1.54517 c 0,1.20407 0.97609,2.18017 2.18016,2.18017 h 0.35455 c 1.20407,0 2.18016,-0.9761 2.18016,-2.18017 z m 3.73856,0.36513 c 0,-0.58012 -0.47027,-1.0504 -1.05039,-1.0504 -0.58012,0 -1.0504,0.47028 -1.0504,1.0504 0,0.58012 0.47028,1.05039 1.0504,1.05039 0.58011,0 1.05039,-0.47028 1.05039,-1.05039 z m -48.11447,0.1905 c 0.37041,0.17991 0.70467,0.38541 1.00277,0.61648 0.23459,0.18344 0.42509,0.46654 0.5715,0.84931 0.83784,2.18369 2.47032,3.4678 4.89743,3.85233 0.094,0.014 0.17932,-0.0639 0.18257,-0.16669 l 0.0291,-1.03452 c 0.003,-0.10988 -0.0549,-0.204 -0.14023,-0.22754 -2.16429,-0.58561 -3.45105,-1.84855 -3.86027,-3.78883 -0.0171,-0.0834 -0.0819,-0.14376 -0.15611,-0.14552 l -2.50825,-0.0423 c -0.13758,-0.003 -0.14375,0.0258 -0.0185,0.0873 z m 11.3665,0.13229 c -0.4057,2.03553 -1.68275,3.2826 -3.83117,3.74121 -0.057,0.0124 -0.0977,0.0619 -0.0979,0.11906 v 2.29394 c 0,0.41981 0.0723,0.43214 0.21696,0.037 0.11289,-0.30692 0.2831,-0.59002 0.51064,-0.84931 0.16934,-0.19403 0.43833,-0.3616 0.80698,-0.50271 2.06728,-0.78846 3.34169,-2.32834 3.82323,-4.61963 0.0759,-0.35983 -0.0476,-0.5274 -0.37041,-0.50271 -0.15875,0.0123 -0.31133,0.0167 -0.45773,0.0132 -0.16052,-0.003 -0.31398,0.0249 -0.46038,0.0847 -0.0711,0.0297 -0.12379,0.0993 -0.14023,0.18521 z" id="path139" style="stroke-width:0.264583" sodipodi:nodetypes="ccccccccccccccccccccccccccccccccccccscccccccccccccccscscccccccccccccccccccccccccccccccsccccccccccccscccccccccccccccccccccccccccccccccscscccccccccccccssccccccccccccccccccccccccsscccssccccccccsccccccccccccscscccccccscccscccccccccccccccccccsccssccsscccccccccccccccccccccccccccccccccccccccccccccccccccccccccccccccccccccccccccccccccccscscccccsccccccccccccccccccccccccccccccccccssccccccccccccccccsccsccccccccccccccsccccccscccccccsscccccccccccccscccccccccsssccssccsssccccccscccccccccscccccccssccccccccccccccccccccsccscccccccccsccscccccccccccccccccssscccccccccccccccccccscccccccccccccsscccscccsccccccccccsssssssssssssssccccsccccsssccscccccccss"/>
    <path fill="#00c2c0" d="m 12.538146,61.680976 a 0.15345833,0.15345833 0 0 1 0.0185,-0.254 l 44.860106,-25.91065 a 0.27252083,0.27252083 0 0 1 0.40746,0.23548 l 0.0159,51.85569 a 0.17991666,0.17991666 0 0 1 -0.2487,0.16669 q -0.31753,-0.13494 -0.66414,-0.33338 -21.484165,-12.36398 -42.949816,-24.76764 -0.6641,-0.38365 -1.43933,-0.99219 z" id="path141" style="stroke-width:0.264583"/>
    <path fill="#00c2c0" d="m 65.282832,92.332957 q -2.25689,-1.31498 -4.45029,-2.59556 a 0.70114582,0.70908332 15.1 0 1 -0.3466,-0.60855 V 35.733286 a 0.2460625,0.2460625 0 0 1 0.35189,-0.22225 q 1.19327,0.57415 2.24896,1.18533 21.34923,12.3534 42.695808,24.72532 a 0.20902083,0.20902083 0 0 1 0,0.35983 l -22.833538,13.2424 a 0.47095833,0.47624999 74.7 0 0 -0.23548,0.40745 l -0.0688,26.490094 a 0.2143125,0.2143125 0 0 1 -0.32015,0.18785 q -8.46137,-4.773083 -17.04181,-9.776353 z" id="path143" style="stroke-width:0.264583"/>
    <path fill="#483c67" d="m 107.341,64.556996 q 0.0423,0.23283 0.0423,0.68262 0,25.500551 0,51.162484 0,0.13759 -0.11906,0.0688 L 85.555212,103.91906 a 0.2301875,0.22225 15.3 0 1 -0.11642,-0.19579 l -0.0159,-26.720274 a 0.43920833,0.43920833 0 0 1 0.21695,-0.37835 l 21.563548,-12.44336 a 0.09789583,0.12170833 66.9 0 1 0.17197,0.0476 q 0.0132,0.0609 -0.005,0.12171 -0.0423,0.12435 -0.0291,0.20637 z" id="path145" style="stroke-width:0.264583"/>
    <path fill="#483c67" d="m 29.863064,75.039786 q 38.592128,22.283211 77.263626,44.640504 a 0.51329166,0.51858333 14.9 0 1 0.25664,0.44715 v 53.67337 q 0,0.13758 -0.11906,0.0688 L 11.207296,118.33885 a 0.32014583,0.29104166 10.1 0 1 -0.15082,-0.19579 q -0.11377,-0.46831 -0.11377,-1.37583 0,-25.762483 -0.0317,-51.527614 0,-0.50006 0.10055,-1.0107 a 0.09789583,0.09789583 0 0 1 0.14552,-0.0635 q 9.337142,5.46364 18.706038,10.87437 z" id="path147" style="stroke-width:0.264583"/>
    <path fill="#000000" d="m 185.27547,73.175979 -5.9981,-0.0159 a 0.2778125,0.27516666 12.4 0 0 -0.25136,0.15875 l -1.47637,3.19088 a 0.44185416,0.49477083 15.1 0 1 -0.44186,0.28839 l -2.00289,-0.11377 a 0.09260417,0.09789583 14.7 0 1 -0.0767,-0.13758 l 7.36071,-15.50458 q 0.0582,-0.12171 0.11377,0.003 l 6.88446,15.48077 a 0.111125,0.10847917 71.5 0 1 -0.0741,0.15346 q -1.10332,0.24871 -2.2225,0.0609 a 0.24870833,0.2301875 82 0 1 -0.17727,-0.14552 l -1.44992,-3.29936 a 0.20108333,0.20902083 78.5 0 0 -0.18785,-0.11906 z m -3.05064,-6.96913 -2.1008,4.64609 a 0.0873125,0.0873125 0 0 0 0.0794,0.12435 l 4.07988,-0.0159 a 0.0873125,0.08995833 78.7 0 0 0.0847,-0.12171 l -1.99761,-4.63286 q -0.0714,-0.16404 -0.14552,0 z" id="path149" style="stroke-width:0.264583"/>
    <path fill="#000000" d="m 259.42495,73.175979 -6.06425,-0.0159 a 0.21166666,0.20902083 11.9 0 0 -0.19314,0.12436 l -1.4949,3.31258 a 0.24077083,0.24341666 8.5 0 1 -0.18521,0.13758 q -1.11654,0.1614 -2.21985,-0.0582 a 0.1031875,0.10583333 18.7 0 1 -0.0714,-0.14817 l 7.28133,-15.50988 q 0.0767,-0.15875 0.14817,0.003 l 6.92944,15.52575 a 0.10583333,0.09525 76 0 1 -0.0767,0.14552 l -1.97909,0.0847 a 0.56620833,0.47095833 74.6 0 1 -0.48418,-0.33602 l -1.40229,-3.14325 a 0.20902083,0.206375 77.6 0 0 -0.18786,-0.12171 z m -2.99244,-7.01411 -2.21191,4.67784 a 0.08466667,0.0873125 13.6 0 0 0.0741,0.12435 l 4.06665,0.0132 a 0.16139583,0.15875 78.1 0 0 0.14552,-0.22489 l -1.96057,-4.58788 q -0.0556,-0.127 -0.11377,-0.003 z" id="path151" style="stroke-width:0.264583"/>
    <path fill="#000000" d="m 277.81349,75.821809 q -0.99748,-0.82021 -1.42346,-1.87325 -0.60589,-1.49754 -0.56356,-3.10621 0.0185,-0.76729 0.0185,-0.78581 0,-4.06929 0,-8.10683 a 0.142875,0.12964583 89.5 0 1 0.127,-0.14288 l 1.98967,-0.037 a 0.14816666,0.13229166 88.9 0 1 0.13494,0.14552 q 0.0556,4.41061 0.11377,8.82386 0.0212,1.80181 0.39952,2.52412 0.46037,0.87842 1.38642,1.32027 0.83343,0.39688 1.79916,0.2884 1.98702,-0.2249 2.71463,-2.30717 0.17198,-0.49477 0.1561,-1.83092 -0.0185,-1.59808 -0.0185,-1.62983 0.0212,-3.6195 0.0608,-7.16756 a 0.238125,0.22754166 0.3 0 1 0.23813,-0.2249 l 1.50812,-0.008 a 0.45508333,0.50006249 89.8 0 1 0.50271,0.45508 q 0,4.88421 0,9.34773 0,1.3626 -0.54769,2.53471 -0.53975,1.14829 -1.60072,1.93939 -2.07698,1.54781 -4.88421,0.91546 -1.1139,-0.25135 -2.11138,-1.07421 z" id="path153" style="stroke-width:0.264583"/>
    <path fill="#000000" d="m 131.58887,70.794729 q -0.23813,3.75179 -0.0238,5.42396 0.0714,0.56356 -0.37571,0.55562 -0.43392,-0.005 -0.53975,0.008 -0.60854,0.09 -1.2065,-0.0635 a 0.174625,0.17727083 7 0 1 -0.12965,-0.16669 q -0.13229,-7.31837 0.0159,-14.63939 a 0.1349375,0.1349375 0 0 1 0.13229,-0.1323 q 1.21973,-0.0318 2.44211,-0.008 0.0159,0 0.94456,-0.005 1.88913,-0.0132 3.14854,0.89164 1.41552,1.01865 1.66423,2.70933 0.23284,1.58221 -0.44714,2.94746 -0.75142,1.51871 -2.52413,2.0664 -1.26206,0.38894 -2.96069,0.29104 a 0.13229166,0.12964583 3.5 0 0 -0.14023,0.12171 z m 3.11679,-6.24946 q -1.10596,-0.74083 -2.83633,-0.61912 a 0.3095625,0.31220833 87.9 0 0 -0.2884,0.30956 v 4.13808 a 0.14552083,0.14552083 0 0 0 0.13494,0.14552 q 1.12712,0.0661 2.02671,-0.15875 1.38377,-0.34396 1.67216,-1.73566 0.29369,-1.41023 -0.70908,-2.07963 z" id="path155" style="stroke-width:0.264583"/>
    <path fill="#000000" d="m 156.07341,74.538579 4.16719,0.12436 a 0.13758333,0.127 2.3 0 1 0.13229,0.13229 l -0.0582,1.82298 a 0.142875,0.14022916 1.1 0 1 -0.14288,0.13494 l -6.35264,-0.0159 a 0.2143125,0.22225 0.3 0 1 -0.21167,-0.22225 v -14.5124 a 0.22489583,0.24077083 88.6 0 1 0.23019,-0.22489 l 1.80446,-0.0741 a 0.25135416,0.269875 88.8 0 1 0.28045,0.25135 l 0.0159,12.44865 a 0.13758333,0.1349375 0.6 0 0 0.13494,0.13493 z" id="path157" style="stroke-width:0.264583"/>
    <path fill="#000000" d="m 205.24887,63.928789 q -1.17475,-0.0608 -2.34686,0.0132 a 0.14816666,0.14552083 83.7 0 1 -0.15346,-0.12435 q -0.15345,-0.98161 -0.0132,-1.9685 a 0.14816666,0.14816666 0 0 1 0.14817,-0.12965 l 8.78417,0.0159 a 0.14816666,0.127 0 0 1 0.14817,0.127 v 1.95527 a 0.13758333,0.12435417 2.3 0 1 -0.14817,0.1217 q -1.55575,-0.10583 -3.10885,0.0609 a 0.142875,0.1508125 85.9 0 0 -0.1323,0.14552 l 0.0185,12.32694 a 0.24341666,0.26722916 0.3 0 1 -0.24607,0.26723 l -1.98966,-0.0132 a 0.12964583,0.142875 0 0 1 -0.12965,-0.14288 v -12.50421 a 0.13229166,0.12964583 0 0 0 -0.13229,-0.12964 q -0.34925,-0.003 -0.6985,-0.0212 z" id="path159" style="stroke-width:0.264583"/>
    <path fill="#000000" d="m 230.08795,67.722919 h 5.48746 a 0.13758333,0.12964583 0 0 1 0.13758,0.12964 l -0.0291,1.91823 a 0.1349375,0.12964583 0.6 0 1 -0.13494,0.127 h -5.4266 a 0.13758333,0.13758333 0 0 0 -0.13759,0.13758 l -0.037,4.3524 a 0.2301875,0.22489583 0.3 0 0 0.23019,0.22754 h 5.56154 a 0.142875,0.13229166 0.5 0 1 0.14288,0.13494 l -0.0397,1.84944 a 0.14022916,0.15345833 89.4 0 1 -0.14817,0.13758 q -3.937,0.15346 -7.93221,-0.008 a 0.142875,0.142875 0 0 1 -0.13758,-0.14287 v -14.72142 a 0.1349375,0.13229166 0 0 1 0.13494,-0.13229 l 7.85283,0.003 a 0.16139583,0.16933333 83.8 0 1 0.16404,0.12435 q 0.18257,0.76465 0.0873,1.84415 a 0.23547916,0.23547916 0 0 1 -0.23813,0.21431 l -5.5536,-0.0185 a 0.13229166,0.13229166 0 0 0 -0.1323,0.13229 l 0.0159,3.55864 a 0.13229166,0.13229166 0 0 0 0.13229,0.1323 z" id="path161" style="stroke-width:0.264583"/>
    <path fill="#ffffff" d="m 134.70566,64.545269 q 1.00277,0.6694 0.70908,2.07963 -0.28839,1.3917 -1.67216,1.73566 -0.89959,0.2249 -2.02671,0.15875 a 0.14552083,0.14552083 0 0 1 -0.13494,-0.14552 v -4.13808 a 0.3095625,0.31220833 87.9 0 1 0.2884,-0.30956 q 1.73037,-0.12171 2.83633,0.61912 z" id="path163" style="stroke-width:0.264583"/>
    <path fill="#ffffff" d="m 256.43251,66.161869 q 0.0582,-0.12435 0.11377,0.003 l 1.96057,4.58788 a 0.16139583,0.15875 78.1 0 1 -0.14552,0.22489 l -4.06665,-0.0132 a 0.08466667,0.0873125 13.6 0 1 -0.0741,-0.12435 z" id="path165" style="stroke-width:0.264583"/>
    <path fill="#ffffff" d="m 182.22483,66.206849 q 0.0741,-0.16404 0.14552,0 l 1.9976,4.63286 a 0.0873125,0.08995833 78.7 0 1 -0.0847,0.12171 l -4.07987,0.0159 a 0.0873125,0.0873125 0 0 1 -0.0794,-0.12435 z" id="path167" style="stroke-width:0.264583"/>
    <path fill="#000000" d="m 173.13374,98.09444 q -0.2196,0.32279 -0.59266,0.35718 -0.0265,0.003 -0.69321,-0.0106 -0.28575,-0.005 -0.56621,-0.0661 a 0.16139583,0.16933333 5.5 0 1 -0.12965,-0.16405 l -0.0159,-9.181041 a 0.25664583,0.25929166 0.3 0 1 0.25929,-0.25929 l 1.51078,0.0132 a 0.14022916,0.12964583 89.4 0 1 0.12964,0.13758 l 0.0952,4.000501 q 0.003,0.13229 0.10583,0.045 0.82021,-0.69056 1.81505,-0.64823 0.88106,0.0344 1.66687,0.6694 1.20121,0.97102 1.12713,2.50825 -0.0661,1.37319 -0.97896,2.3151 -1.3679,1.40759 -3.54806,0.23284 a 0.14022916,0.14816666 31.1 0 0 -0.18521,0.0503 z m 2.73315,-2.65113 a 1.4472708,1.4472708 0 0 0 -1.44727,-1.44727 1.4472708,1.4472708 0 0 0 -1.44727,1.44727 1.4472708,1.4472708 0 0 0 1.44727,1.44727 1.4472708,1.4472708 0 0 0 1.44727,-1.44727 z" id="path169" style="stroke-width:0.264583"/>
    <path fill="#000000" d="m 209.74943,93.42454 q -0.0265,-0.19579 -0.0979,-0.0106 -0.87578,2.27012 -1.85738,4.48998 -0.39158,0.889 -0.84931,0.39687 -0.15346,-0.16404 -0.34661,-0.61119 -0.89429,-2.05845 -1.86002,-4.23862 -0.12435,-0.2831 -0.16404,0.0291 l -0.58738,4.74398 a 0.16139583,0.15610416 3.2 0 1 -0.15875,0.13759 l -1.71979,-0.0132 a 0.11377083,0.11377083 0 0 1 -0.11112,-0.13229 l 1.33879,-8.437571 a 0.23547916,0.25135416 6.7 0 1 0.24871,-0.21166 l 1.39965,0.09 a 0.24077083,0.1984375 77.8 0 1 0.18256,0.14553 l 2.05052,4.857751 q 0.0714,0.17197 0.14552,-0.008 l 1.98967,-4.852461 a 0.40745833,0.396875 12.8 0 1 0.39952,-0.24342 l 1.21179,0.0794 a 0.17991666,0.17727083 87.2 0 1 0.16139,0.14816 l 1.3044,8.247071 a 0.333375,0.36777083 87 0 1 -0.381,0.38364 l -1.39171,-0.0556 a 0.22489583,0.24341666 87.5 0 1 -0.23019,-0.19315 z" id="path171" style="stroke-width:0.264583"/>
    <path fill="#000000" d="m 221.49164,96.626 2.413,0.0317 a 0.1349375,0.1349375 0 0 1 0.13494,0.13494 l 0.0132,1.43404 a 0.1905,0.20372916 89.6 0 1 -0.20373,0.19314 l -4.445,-0.045 a 0.11377083,0.111125 0 0 1 -0.11377,-0.11113 v -8.466671 a 0.23283333,0.23283333 0 0 1 0.23283,-0.23283 h 1.57692 a 0.24077083,0.24077083 0 0 1 0.24077,0.24077 l 0.0159,6.686021 a 0.1349375,0.1349375 0 0 0 0.13494,0.13494 z" id="path173" style="stroke-width:0.264583"/>
    <rect fill="#000000" x="231.15649" y="89.164528" transform="rotate(0.1)" width="1.9896667" height="8.8000412" rx="0.111125" id="rect175" style="stroke-width:0.264583"/>
    <path fill="#000000" d="m 241.63437,91.31317 -1.47373,0.0318 a 0.24341666,0.22754166 89.4 0 1 -0.23283,-0.24342 v -1.362601 a 0.174625,0.174625 0 0 1 0.17462,-0.17463 h 5.22817 a 0.41804166,0.42068749 84.5 0 1 0.41275,0.33867 q 0.10848,0.54768 -0.0767,1.267351 a 0.15610416,0.1984375 9.7 0 1 -0.16669,0.15081 l -1.35731,-0.0529 a 0.23547916,0.20372916 1.4 0 0 -0.24606,0.20108 v 6.71513 a 0.17727083,0.17727083 0 0 1 -0.17728,0.17727 h -1.76741 a 0.17197916,0.174625 0 0 1 -0.17198,-0.17463 l -0.0159,-6.75217 a 0.12170833,0.127 89.4 0 0 -0.12964,-0.1217 z" id="path177" style="stroke-width:0.264583"/>
    <path fill="#000000" d="m 185.80993,95.5174 q 0.0952,0.18256 0.1905,-0.0132 l 1.34144,-2.77019 a 0.38629166,0.42068749 15.4 0 1 0.37835,-0.23813 l 1.70921,0.0847 a 0.079375,0.08995833 16.9 0 1 0.0582,0.12965 l -4.44765,8.45873 a 0.28045833,0.31220833 9.5 0 1 -0.19314,0.15345 q -0.81492,0.18257 -1.87854,-0.0423 a 0.174625,0.1825625 20.8 0 1 -0.11113,-0.26458 l 1.78859,-3.16177 a 0.47360416,0.41539583 47.6 0 0 -0.008,-0.43392 l -2.52942,-4.7625 a 0.079375,0.08202083 76.6 0 1 0.0741,-0.11642 h 1.83621 a 0.35454166,0.33866666 75.8 0 1 0.29898,0.18786 z" id="path179" style="stroke-width:0.264583"/>
    <circle fill="#ffffff" cx="174.41963" cy="95.443306" r="1.4472708" id="circle181" style="stroke-width:0.264583"/>
    <rect fill="#a6aaa9" x="158.37" y="113.04604" width="99.74263" height="0.52916664" rx="0.25135416" id="rect183" style="stroke-width:0.264583"/>
    <path fill="#a6aaa9" d="m 195.87468,122.20062 q -0.13229,-0.045 -0.26194,-0.003 a 0.24341666,0.301625 2.6 0 0 -0.16404,0.18521 q -0.24606,0.78052 0.75671,1.04775 0.65617,0.17462 0.73819,0.82285 0.0661,0.51329 0,1.00013 -0.0582,0.42333 -0.35984,0.71966 -0.26458,0.25929 -0.69321,0.30163 -1.28058,0.12435 -1.397,-1.25677 a 0.19314583,0.1825625 77.3 0 1 0.11378,-0.1905 q 0.28575,-0.11113 0.55562,0 a 0.36247916,0.25135416 81.7 0 1 0.16933,0.17991 q 0.48419,1.06892 0.79111,-0.12435 0.13494,-0.53181 -0.38365,-0.70379 -1.43139,-0.47625 -1.18269,-1.8124 0.11113,-0.59796 0.51065,-0.87841 0.48419,-0.33867 1.13771,-0.10848 0.85196,0.30162 0.73289,1.24354 a 0.22754166,0.22489583 83.6 0 1 -0.14287,0.17991 q -0.65881,0.23813 -0.78581,-0.41804 a 0.25664583,0.17727083 88.7 0 0 -0.13494,-0.18521 z" id="path185" style="stroke-width:0.264583"/>
    <path fill="#a6aaa9" d="m 214.78181,122.61867 q 0.0212,-0.51859 0.0106,-1.03982 -0.008,-0.32014 0.21167,-0.254 0.10054,0.0317 0.24341,0.0159 l 0.1905,-0.0238 a 0.14816666,0.1190625 87.1 0 1 0.13229,0.14816 l 0.09,4.39738 a 0.40481249,0.39952083 89.4 0 1 -0.39952,0.41275 q -0.66675,0 -1.06362,-0.008 -0.71438,-0.0106 -0.74348,-0.635 -0.0265,-0.53446 -0.0291,-0.56092 -0.0609,-0.47625 -0.0132,-0.95514 0.005,-0.0635 0.0371,-0.61384 0.0582,-1.03187 1.19591,-0.78052 a 0.11641667,0.111125 7 0 0 0.13759,-0.10318 z m -0.2576,2.81252 a 0.96572915,0.29104166 89.9 0 0 0.28935,-0.96624 0.96572915,0.29104166 89.9 0 0 -0.29274,-0.96522 0.96572915,0.29104166 89.9 0 0 -0.28935,0.96623 0.96572915,0.29104166 89.9 0 0 0.29274,0.96523 z" id="path187" style="stroke-width:0.264583"/>
    <path fill="#a6aaa9" d="m 217.35091,126.20642 a 0.0396875,0.03704167 7.9 0 1 -0.0291,-0.037 l -0.003,-4.70429 a 0.16404166,0.16139583 85 0 1 0.13229,-0.16139 q 0.8599,-0.14552 0.65352,0.80433 -0.18785,0.86519 0.47096,0.58473 a 0.28045833,0.41804166 50.2 0 1 0.24871,-0.0265 q 0.62706,0.17992 0.6641,1.02923 0.0397,0.91546 -0.0344,1.82562 -0.0344,0.4445 -0.26194,0.62442 -0.30956,0.24871 -0.76994,0.10848 -0.12435,-0.0397 -0.25135,-0.0132 -0.38365,0.0794 -0.82021,-0.0344 z m 1.0595,-0.74616 a 0.28575,0.97102082 0.4 0 0 0.29252,-0.96901 0.28575,0.97102082 0.4 0 0 -0.27898,-0.97297 0.28575,0.97102082 0.4 0 0 -0.29252,0.96901 0.28575,0.97102082 0.4 0 0 0.27898,0.97297 z" id="path189" style="stroke-width:0.264583"/>
    <path fill="#a6aaa9" d="m 209.42135,123.49444 q -0.40481,-0.0397 -0.65881,0.20637 -0.18257,0.17727 -0.23019,0.57944 -0.10319,0.85989 -0.0238,1.26735 0.19579,1.01071 -0.71967,0.69057 a 0.17197916,0.19579166 8.2 0 1 -0.11906,-0.17992 l -0.005,-2.97921 a 0.37041666,0.37835416 9.3 0 1 0.49213,-0.35983 q 0.66675,0.22754 1.2991,-0.14288 a 0.206375,0.17991666 71.3 0 0 0.0847,-0.20373 q -0.15081,-0.8837 0.69321,-0.63764 a 0.14022916,0.15345833 13.8 0 1 0.0953,0.17198 q -0.10319,0.5371 0.29633,0.80962 a 0.40745833,0.22489583 21.4 0 1 0.1614,0.19315 q 0.12171,0.39687 -0.28046,0.51064 a 0.16404166,0.18520833 81.8 0 0 -0.13494,0.15875 l -0.0106,1.17475 q -0.003,0.17992 0.31485,0.74348 0.15875,0.2884 0.0661,0.58738 a 0.22489583,0.2143125 3.6 0 1 -0.17992,0.15081 q -0.53446,0.0847 -0.81491,-0.27517 -0.17992,-0.22754 -0.17728,-0.73818 0.005,-0.78846 -0.0159,-1.57692 a 0.14816666,0.15610416 2.2 0 0 -0.13229,-0.15081 z" id="path191" style="stroke-width:0.264583"/>
    <path fill="#a6aaa9" d="m 197.81143,126.19054 q -0.48419,-0.0291 -0.48154,-0.57415 l 0.0132,-2.69874 a 0.19579166,0.19579166 0 0 1 0.127,-0.18257 q 0.75671,-0.27252 0.65352,0.62971 -0.0767,0.65617 0.0503,1.78594 a 0.24077083,0.34925 7.5 0 0 0.11377,0.22225 q 0.1905,0.13758 0.30956,-0.09 0.0556,-0.10319 0.0556,-0.27781 0,-0.85196 -0.0159,-1.70657 -0.0132,-0.8202 0.73554,-0.56091 a 0.18785416,0.19314583 8.6 0 1 0.127,0.17727 l 0.0132,3.09827 a 0.2460625,0.25929166 1.7 0 1 -0.26193,0.25929 z" id="path193" style="stroke-width:0.264583"/>
    <path fill="#a6aaa9" d="m 200.77741,126.35723 q -0.037,0.64558 -0.008,0.77787 0.14816,0.67734 -0.52917,0.52917 a 0.60854166,0.28839583 88.7 0 1 -0.26458,-0.52917 q -0.15875,-2.11666 -0.0106,-4.23333 a 0.174625,0.1666875 87.9 0 1 0.14023,-0.15875 q 0.26194,-0.0503 0.53181,-0.0212 0.25929,0.0291 0.52388,-0.008 0.91281,-0.12436 0.93133,0.9816 0.0185,1.18798 0.005,1.75419 -0.0106,0.49741 -0.30692,0.70643 -0.36512,0.25665 -0.87841,0.11113 a 0.10583333,0.10054167 10.2 0 0 -0.13494,0.09 z m 0.25146,-0.87315 a 0.29104166,0.99218749 0.3 0 0 0.29623,-0.99063 0.29104166,0.99218749 0.3 0 0 -0.28586,-0.9937 0.29104166,0.99218749 0.3 0 0 -0.29623,0.99063 0.29104166,0.99218749 0.3 0 0 0.28586,0.9937 z" id="path195" style="stroke-width:0.264583"/>
    <path fill="#a6aaa9" d="m 203.60845,126.21171 a 0.14552083,0.14816666 8.8 0 0 -0.17992,0.13493 l -0.10318,1.11919 a 0.22489583,0.23283333 86.1 0 1 -0.17992,0.19844 q -0.66146,0.15081 -0.61913,-0.40746 0.0265,-0.35189 0.0265,-0.381 -0.0291,-1.99496 0.0476,-3.98727 a 0.15875,0.15345833 88.4 0 1 0.13759,-0.15081 q 0.29104,-0.0238 0.58737,-0.003 0.20902,0.0159 0.5715,-0.0265 0.74878,-0.0926 0.79376,0.79111 0.0476,0.95514 0.0318,1.91558 -0.0159,1.05833 -1.1139,0.7964 z m 0.32015,-2.38919 a 0.24341666,0.24341666 0 0 0 -0.24342,-0.24342 h -0.0265 a 0.24341666,0.24341666 0 0 0 -0.24342,0.24342 v 1.34937 a 0.24341666,0.24341666 0 0 0 0.24342,0.24342 h 0.0265 a 0.24341666,0.24341666 0 0 0 0.24342,-0.24342 z" id="path197" style="stroke-width:0.264583"/>
    <path fill="#a6aaa9" d="m 207.30595,125.27963 a 0.99747915,0.99747915 0 0 1 -0.99922,0.99574 l -0.17992,-2.7e-4 a 0.99747915,0.99747915 0 0 1 -0.99573,-0.99922 l 0.003,-1.57163 a 0.99747915,0.99747915 0 0 1 0.99922,-0.99573 l 0.17992,2.6e-4 a 0.99747915,0.99747915 0 0 1 0.99573,0.99923 z m -1.10458,0.19389 a 0.28575,0.98424999 0 0 0 0.28575,-0.98425 0.28575,0.98424999 0 0 0 -0.28575,-0.98425 0.28575,0.98424999 0 0 0 -0.28575,0.98425 0.28575,0.98424999 0 0 0 0.28575,0.98425 z" id="path199" style="stroke-width:0.264583"/>
    <path fill="#a6aaa9" d="m 211.70206,125.03431 q 0.0344,0.59267 0.46037,0.34131 0.33073,-0.19314 0.43392,-0.21166 0.42333,-0.0794 0.37306,0.35189 -0.0265,0.21167 -0.18521,0.381 -0.47889,0.50536 -1.15623,0.34132 -0.35718,-0.0873 -0.56885,-0.35455 -0.254,-0.32014 -0.19579,-0.68791 0.0873,-0.56621 0.0344,-1.13771 -0.11112,-1.24619 1.00277,-1.32027 0.93134,-0.0582 1.04246,0.83344 0.0635,0.52122 0.0635,0.91281 a 0.3413125,0.41010416 88.4 0 1 -0.39158,0.34396 l -0.78846,0.037 a 0.16404166,0.1349375 86.9 0 0 -0.12435,0.16933 z m 0.5715,-1.143 a 0.28575,0.28575 0 0 0 -0.28575,-0.28575 0.28575,0.28575 0 0 0 -0.28575,0.28575 0.28575,0.28575 0 0 0 0.28575,0.28575 0.28575,0.28575 0 0 0 0.28575,-0.28575 z" id="path201" style="stroke-width:0.264583"/>
    <path fill="#a6aaa9" d="m 220.72699,124.02625 q 0.0714,0.64029 0.21432,0.0132 l 0.254,-1.12183 a 0.27252083,0.2301875 88.5 0 1 0.15081,-0.18786 q 0.34131,-0.13494 0.62441,0.0847 a 0.1905,0.21960416 23.9 0 1 0.0662,0.21696 q -0.4445,1.82033 -0.89429,3.64066 -0.23813,0.96309 -1.10596,0.97896 a 0.1984375,0.19579166 78.7 0 1 -0.18785,-0.127 q -0.22225,-0.57415 0.1852,-0.71967 0.58473,-0.20902 0.41805,-0.81227 l -0.84402,-3.07181 a 0.14022916,0.14022916 0 0 1 0.0979,-0.16933 q 0.73819,-0.19844 0.84931,0.32014 0.13494,0.62971 0.17198,0.95515 z" id="path203" style="stroke-width:0.264583"/>
    <ellipse fill="#ffffff" cx="123.4376" cy="-201.68314" transform="rotate(90.3)" rx="0.9921875" ry="0.29104167" id="ellipse205" style="stroke-width:0.264583"/>
    <rect fill="#ffffff" x="203.41531" y="123.5791" width="0.51329166" height="1.8362083" rx="0.24341667" id="rect207" style="stroke-width:0.264583"/>
    <ellipse fill="#ffffff" cx="124.48926" cy="-206.20137" transform="rotate(90)" rx="0.98425001" ry="0.28575" id="ellipse209" style="stroke-width:0.264583"/>
    <circle fill="#ffffff" cx="211.98781" cy="123.8913" r="0.28575" id="circle211" style="stroke-width:0.264583"/>
    <ellipse fill="#ffffff" cx="124.83968" cy="-214.30496" transform="rotate(89.9)" rx="0.96572918" ry="0.29104167" id="ellipse213" style="stroke-width:0.264583"/>
    <ellipse fill="#ffffff" cx="122.96141" cy="-219.28096" transform="rotate(90.400001)" rx="0.97102082" ry="0.28575" id="ellipse215" style="stroke-width:0.264583"/>
    <path fill="#79a9db" d="m 247.59808,135.74994 q 1.12712,-2.05846 3.23056,-2.56382 1.57956,-0.381 2.73314,0.29105 1.17211,0.68262 1.0213,2.15635 -0.11377,1.0795 -0.91282,1.96585 -1.59543,1.76742 -4.23333,1.50548 a 0.11641667,0.11377083 1.8 0 0 -0.127,0.11642 q 0.16669,3.67242 -2.58233,6.09071 -4.44236,3.90789 -10.04094,2.52677 -2.88396,-0.71173 -4.08252,-3.2385 -0.74083,-1.56104 -0.50271,-3.27025 0.16404,-1.16417 0.6985,-2.21721 0.46302,-0.91281 1.36525,-1.83356 4.01373,-4.0984 9.86367,-3.13267 1.73037,0.28575 3.40518,1.63777 a 0.10847917,0.111125 33.7 0 0 0.16405,-0.0344 z m 5.21634,-0.55539 a 1.0556875,1.9393958 62.9 0 0 -2.2074,-0.0563 1.0556875,1.9393958 62.9 0 0 -1.24558,1.82324 1.0556875,1.9393958 62.9 0 0 2.2074,0.0563 1.0556875,1.9393958 62.9 0 0 1.24558,-1.82324 z m -5.45267,3.56201 a 5.1011666,7.0802499 70.9 0 0 -8.35967,-2.50354 5.1011666,7.0802499 70.9 0 0 -5.02126,7.13713 5.1011666,7.0802499 70.9 0 0 8.35967,2.50354 5.1011666,7.0802499 70.9 0 0 5.02126,-7.13713 z" id="path217" style="stroke-width:0.264583"/>
    <path fill="#00ac50" d="m 163.59287,140.99398 -0.95779,-0.0317 a 0.25929166,0.24341666 5.4 0 1 -0.25136,-0.28575 q 0.61119,-3.43429 3.67506,-4.71223 0.0185,-0.008 0.40746,-0.13229 0.51859,-0.16404 0.74613,-0.65352 0.19314,-0.41805 0.2196,-0.46038 0.0952,-0.16404 0.19579,-0.32544 0.0794,-0.12964 0.082,0.0185 l 0.045,2.43153 a 0.15610416,0.174625 83.4 0 1 -0.13758,0.1561 q -3.24644,0.64558 -3.82058,3.84175 a 0.20372916,0.18785416 5.7 0 1 -0.20373,0.15346 z" id="path219" style="stroke-width:0.264583"/>
    <ellipse fill="#ffffff" cx="161.53204" cy="235.52022" transform="rotate(-27.1)" rx="1.9393958" ry="1.0556875" id="ellipse221" style="stroke-width:0.264583"/>
    <path fill="#003a40" d="m 174.04655,140.21346 1.15359,0.59531 q 0.381,0.19844 -0.0423,0.20108 l -2.46856,0.0159 a 0.17991666,0.174625 82.6 0 1 -0.16934,-0.13494 q -0.77258,-3.25967 -3.78354,-3.86027 a 0.18520833,0.14552083 7.3 0 1 -0.15346,-0.1561 l 0.0265,-1.19328 a 0.14022916,0.11641667 6 0 1 0.1614,-0.10847 q 3.92112,0.65881 5.12233,4.45029 a 0.28045833,0.33602083 1 0 0 0.15346,0.1905 z" id="path223" style="stroke-width:0.264583"/>
    <ellipse fill="#ffffff" cx="181.26035" cy="212.05907" transform="rotate(-19.1)" rx="7.0802498" ry="5.1011667" id="ellipse225" style="stroke-width:0.264583"/>
    <path fill="#00ac50" d="m 182.47237,142.60307 a 2.4315208,2.4315208 0 0 1 -2.44422,2.41874 l -0.35454,-0.002 a 2.4315208,2.4315208 0 0 1 -2.41874,-2.44422 l 0.0128,-2.45002 a 2.4315208,2.4315208 0 0 1 2.44422,-2.41874 l 0.35454,0.002 a 2.4315208,2.4315208 0 0 1 2.41874,2.44422 z m -1.17094,-2.38961 a 1.3467291,1.3467291 0 0 0 -1.34673,-1.34673 h -0.16933 a 1.3467291,1.3467291 0 0 0 -1.34673,1.34673 v 2.29658 a 1.3467291,1.3467291 0 0 0 1.34673,1.34673 h 0.16933 a 1.3467291,1.3467291 0 0 0 1.34673,-1.34673 z" id="path227" style="stroke-width:0.264583"/>
    <path fill="#000000" d="m 192.91399,142.36717 q -0.0556,-0.54769 -0.59266,-0.43657 -0.889,0.18521 -1.00807,-0.21166 -0.0556,-0.18257 -0.0185,-0.59267 0.0423,-0.45244 0.60061,-0.29104 0.13493,0.037 0.254,0.0185 0.84666,-0.14023 1.66423,0.0847 a 0.20372916,0.206375 2.8 0 1 0.14816,0.16668 q 0.13759,0.88107 0.0609,1.57427 -0.14023,1.26736 -1.06362,1.89707 -0.84138,0.57414 -1.93675,0.43391 -1.60073,-0.20373 -2.159,-2.00025 -0.127,-0.40746 -0.0662,-2.3151 0.037,-1.16417 0.54504,-1.93146 0.52652,-0.7964 1.56369,-1.02923 1.34143,-0.30162 2.4712,0.64294 a 0.33602083,0.33602083 0 0 1 0.0714,0.42598 q -0.44714,0.75671 -0.84931,0.46831 -0.35719,-0.25665 -0.37571,-0.26458 -1.07156,-0.46302 -1.7145,0.23283 -0.42333,0.45773 -0.51064,1.40229 -0.0741,0.83079 0.0212,1.66423 0.09,0.77523 0.45773,1.16946 0.54239,0.57944 1.3626,0.3519 0.46831,-0.12965 0.76729,-0.52653 0.35454,-0.4736 0.30692,-0.93397 z" id="path229" style="stroke-width:0.264583"/>
    <path fill="#002125" fill-opacity="0.996" d="m 212.38204,144.67698 q -0.54505,0.37835 -1.22767,0.38364 -0.70115,0.008 -1.04246,0.0371 a 0.1190625,0.15610416 86.7 0 1 -0.16669,-0.11378 l -0.0212,-0.92868 a 0.13758333,0.12170833 2.8 0 1 0.15081,-0.12171 q 2.59821,0.27252 2.46327,-2.31511 -0.0582,-1.08214 -0.0609,-2.16693 0,-0.0238 0.0212,-0.2884 0.045,-0.51594 -0.6006,-0.37571 a 0.24341666,0.28045833 84.3 0 1 -0.34131,-0.24077 l 0.0397,-0.74877 a 0.1666875,0.13758333 0.9 0 1 0.16669,-0.13229 l 1.651,-0.0106 a 0.25664583,0.2619375 0 0 1 0.25665,0.26193 q -0.0159,2.5453 -0.0741,4.7625 -0.0159,0.6694 -0.36777,1.16946 -0.32808,0.46831 -0.84666,0.82815 z" id="path231" style="stroke-width:0.264583"/>
    <path fill="#003a40" d="m 215.99889,142.56296 -0.0318,2.28071 a 0.238125,0.2143125 77.5 0 1 -0.11377,0.20372 q -0.42863,0.2249 -0.86254,0 a 0.21695833,0.22754166 13.1 0 1 -0.11642,-0.19843 l -0.0159,-7.0194 a 0.17727083,0.17727083 0 0 1 0.17728,-0.17727 q 0.69585,0 1.38112,0 0.85196,0 1.33615,0.24077 0.84137,0.42333 1.21708,1.27529 0.3466,0.78846 0.0185,1.63248 -0.67998,1.7489 -2.8575,1.64042 a 0.12435417,0.12170833 1.8 0 0 -0.13229,0.12171 z m 0.16404,-1.38377 q 0.94985,0.26723 1.60602,-0.41805 0.48154,-0.5027 0.22225,-1.10595 -0.21167,-0.48948 -0.70644,-0.6985 -0.49741,-0.20638 -1.13241,-0.0979 a 0.21960416,0.20902083 84.6 0 0 -0.17198,0.21696 l 0.0238,1.98173 a 0.1031875,0.10583333 6.3 0 0 0.0794,0.10319 q 0.0397,0.008 0.0794,0.0185 z" id="path233" style="stroke-width:0.264583"/>
    <path fill="#00ac50" d="m 184.22508,141.22681 q -0.75936,-0.508 -0.72232,-1.45785 0.082,-2.0955 2.25161,-2.05052 0.74348,0.0159 1.31233,0.28575 0.4789,0.22489 0.53975,0.37306 0.11642,0.27252 -0.3175,0.7911 a 0.22754166,0.2301875 35.4 0 1 -0.2884,0.0503 q -0.53445,-0.31485 -1.03452,-0.40745 -0.57943,-0.10584 -1.00806,0.2487 -0.72231,0.59532 0.28311,1.42082 0.17462,0.14287 1.07156,0.52916 0.66939,0.2884 0.98425,0.635 0.8546,0.93398 0.40746,1.98967 -0.44715,1.05833 -1.62719,1.33615 -1.23825,0.29104 -2.47386,-0.50007 a 0.23283333,0.23283333 0 0 1 -0.10054,-0.25135 q 0.23548,-0.97102 0.85196,-0.60854 0.65881,0.39158 1.36525,0.29633 0.56356,-0.0767 0.8255,-0.47096 0.27252,-0.4101 -0.0212,-0.84402 -0.16404,-0.24342 -0.61648,-0.4445 -0.88106,-0.38629 -1.68275,-0.92075 z" id="path235" style="stroke-width:0.264583"/>
    <path fill="#00ac50" d="m 169.27347,141.81948 q -0.55827,-1.00013 -1.57692,-1.51077 0.24607,-1.143 0.381,-2.30452 0.045,-0.381 0.0979,-0.0794 0.19315,1.08744 0.381,2.16958 a 0.19579166,0.1984375 66.8 0 0 0.31221,0.12171 l 1.22502,-0.89429 q 0.37571,-0.27252 0.10319,0.0952 l -0.76464,1.02923 q -0.35719,0.48419 0.20902,0.56356 l 1.84414,0.25929 q 0.55034,0.0767 0,0.16934 z" id="path237" style="stroke-width:0.264583"/>
    <rect fill="#ffffff" x="178.43864" y="138.86673" width="2.8627915" height="4.9900417" rx="1.3467292" id="rect239" style="stroke-width:0.264583"/>
    <path fill="#ffffff" d="m 216.16293,141.17919 q -0.0397,-0.0106 -0.0794,-0.0185 a 0.1031875,0.10583333 6.3 0 1 -0.0794,-0.10319 l -0.0238,-1.98173 a 0.21960416,0.20902083 84.6 0 1 0.17198,-0.21696 q 0.635,-0.10848 1.13241,0.0979 0.49477,0.20902 0.70644,0.6985 0.25929,0.60325 -0.22225,1.10595 -0.65617,0.68528 -1.60602,0.41805 z" id="path241" style="stroke-width:0.264583"/>
    <path fill="#003a40" d="m 195.9911,144.41504 q -0.76994,-0.57679 -0.90223,-1.524 -0.10848,-0.75671 -0.005,-1.61131 0.11112,-0.90752 0.73025,-1.50548 0.79375,-0.76994 1.91558,-0.67998 1.22238,0.0952 1.86531,1.32027 0.46302,0.87577 0.16934,1.95792 a 0.174625,0.17991666 8.1 0 1 -0.16934,0.13229 l -3.09827,0.037 a 0.18785416,0.19314583 84.1 0 0 -0.18785,0.2249 q 0.11641,0.57943 0.52387,0.85195 0.27252,0.18257 0.90223,0.17992 0.63765,0 1.16681,0.0159 a 0.29633333,0.29897916 84.7 0 1 0.28046,0.23018 q 0.23019,1.00807 -0.42333,0.98425 -0.42863,-0.0132 -0.47625,-0.0106 -1.35467,0.10054 -2.29129,-0.60325 z m 2.00818,-3.98462 q -0.91281,-0.48419 -1.59543,0.46302 -0.42334,0.58737 0.29104,0.58737 l 1.76477,0.008 a 0.1905,0.18785416 82.7 0 0 0.17992,-0.23813 q -0.14817,-0.55827 -0.6403,-0.8202 z" id="path243" style="stroke-width:0.264583"/>
    <path fill="#003a40" d="m 205.49493,142.854 a 2.1801666,2.1801666 0 0 1 -2.18017,2.18017 h -0.35454 a 2.1801666,2.1801666 0 0 1 -2.18017,-2.18017 v -1.54517 a 2.1801666,2.1801666 0 0 1 2.18017,-2.18016 h 0.35454 a 2.1801666,2.1801666 0 0 1 2.18017,2.18016 z m -1.2305,-1.50937 a 1.0715625,1.0715625 0 0 0 -1.06029,-1.08273 l -0.13756,-0.001 a 1.0715625,1.0715625 0 0 0 -1.08272,1.06026 l -0.0156,1.49217 a 1.0715625,1.0715625 0 0 0 1.06029,1.08273 l 0.13755,0.001 a 1.0715625,1.0715625 0 0 0 1.08273,-1.06027 z" id="path245" style="stroke-width:0.264583"/>
    <path fill="#003a40" d="m 167.69655,140.30871 q 1.01865,0.51064 1.57692,1.51077 0.42333,0.85196 1.03188,1.57956 0.0212,0.0265 0.0291,0.0556 0.0317,0.11113 -0.082,0.0317 -0.78846,-0.55033 -1.62984,-1.016 -0.9525,-0.59266 -1.5875,-1.52135 l -0.98689,-1.59279 a 0.16933333,0.05027083 56.7 0 1 -0.045,-0.15082 q 0.0317,-0.045 0.15875,0.0476 0.75406,0.54769 1.53458,1.05569 z m 0.73555,1.05568 a 0.28839583,0.28839583 0 0 0 -0.2884,-0.28839 0.28839583,0.28839583 0 0 0 -0.2884,0.28839 0.28839583,0.28839583 0 0 0 0.2884,0.2884 0.28839583,0.28839583 0 0 0 0.2884,-0.2884 z" id="path247" style="stroke-width:0.264583"/>
    <path fill="#ffffff" d="m 197.99928,140.43042 q 0.49213,0.26193 0.6403,0.8202 a 0.1905,0.18785416 82.7 0 1 -0.17992,0.23813 l -1.76477,-0.008 q -0.71438,0 -0.29104,-0.58737 0.68262,-0.94721 1.59543,-0.46302 z" id="path249" style="stroke-width:0.264583"/>
    <rect fill="#ffffff" x="203.45265" y="138.1263" transform="rotate(0.60000011)" width="2.2807083" height="3.6353748" rx="1.0715625" id="rect251" style="stroke-width:0.264583"/>
    <circle fill="#da000f" cx="208.18309" cy="141.67395" r="1.0503958" id="circle253" style="stroke-width:0.264583"/>
    <path fill="#00ac50" d="m 167.0351,140.949 q 0.635,0.92869 1.5875,1.52135 -0.16669,0.0423 -0.15611,0.21961 0.0132,0.20637 0.008,0.24341 -0.127,0.98425 -0.24871,1.86532 -0.0635,0.44714 -0.13229,0 l -0.32808,-2.11402 a 0.21166666,0.21166666 0 0 0 -0.32279,-0.14553 q -0.57415,0.35984 -1.00542,0.73555 -0.45773,0.39952 -0.24871,-0.0714 0.0317,-0.0714 0.0952,-0.14023 0.44715,-0.49213 0.68792,-1.10596 a 0.11641667,0.11377083 17.8 0 0 -0.082,-0.15346 q -1.06892,-0.26458 -2.16429,-0.36248 -0.29369,-0.0264 -0.12171,-0.12435 0.045,-0.0265 0.10583,-0.0317 1.16946,-0.11906 2.32569,-0.33602 z" id="path255" style="stroke-width:0.264583"/>
    <circle fill="#ffffff" cx="168.14371" cy="141.3644" r="0.28839585" id="circle257" style="stroke-width:0.264583"/>
    <path fill="#003a40" d="m 161.11901,141.86446 q -0.18785,-0.0926 0.0185,-0.0873 l 2.50825,0.0423 a 0.1825625,0.15875 84 0 1 0.15611,0.14552 q 0.61383,2.91042 3.86027,3.78883 a 0.1905,0.238125 6.9 0 1 0.14023,0.22754 l -0.0291,1.03452 a 0.15875,0.17197916 4.8 0 1 -0.18257,0.16669 q -3.64066,-0.57679 -4.89743,-3.85233 -0.21961,-0.57415 -0.5715,-0.84931 -0.44715,-0.34661 -1.00277,-0.61648 z" id="path259" style="stroke-width:0.264583"/>
    <path fill="#00ac50" d="m 172.62574,141.81154 q 0.21961,-0.09 0.46038,-0.0847 0.2196,0.005 0.45773,-0.0132 0.48418,-0.037 0.37041,0.50271 -0.72231,3.43694 -3.82323,4.61963 -0.55298,0.21166 -0.80698,0.50271 -0.34131,0.38893 -0.51064,0.84931 -0.21696,0.59267 -0.21696,-0.037 v -2.29394 a 0.12170833,0.12435417 83.8 0 1 0.0979,-0.11906 q 3.22263,-0.68792 3.83117,-3.74121 a 0.2619375,0.22489583 86.5 0 1 0.14023,-0.18521 z" id="path261" style="stroke-width:0.264583"/>
  </g>
</svg>