<?xml version="1.0" encoding="UTF-8" standalone="no"?>
<svg
   xmlns:dc="http://purl.org/dc/elements/1.1/"
   xmlns:cc="http://creativecommons.org/ns#"
   xmlns:rdf="http://www.w3.org/1999/02/22-rdf-syntax-ns#"
   xmlns:svg="http://www.w3.org/2000/svg"
   xmlns="http://www.w3.org/2000/svg"
   version="1.1"
   id="svg2"
   viewBox="0 0 744.09448819 1052.3622047"
   height="297mm"
   width="210mm">
  <defs
     id="defs4" />
  <metadata
     id="metadata7">
    <rdf:RDF>
      <cc:Work
         rdf:about="">
        <dc:format>image/svg+xml</dc:format>
        <dc:type
           rdf:resource="http://purl.org/dc/dcmitype/StillImage" />
        <dc:title></dc:title>
      </cc:Work>
    </rdf:RDF>
  </metadata>
  <g
     id="layer1">
    <path
       id="path3401"
       d="m 191.68896,791.62519 c -27.49684,-2.26572 -43.91637,-9.20466 -60.11754,-25.40583 -13.57843,-13.57843 -19.9713,-26.17561 -24.10551,-47.5 -1.74086,-8.97943 -1.86034,-19.77448 -2.18032,-197 -0.38441,-212.91338 -0.30876,-215.55493 6.74814,-235.63309 7.55549,-21.49673 27.90788,-41.84911 49.4046,-49.4046 20.07816,-7.0569 22.71971,-7.13255 235.63309,-6.74814 177.22552,0.31998 188.02057,0.43946 197,2.18032 21.32439,4.13421 33.92157,10.52708 47.5,24.10551 12.7032,12.7032 19.29859,24.90409 23.01653,42.57857 3.35527,15.95043 3.61145,33.41785 3.2693,222.92143 -0.31998,177.22552 -0.43946,188.02057 -2.18032,197 -4.13421,21.32439 -10.52708,33.92157 -24.10551,47.5 -16.68717,16.68717 -32.16171,23.03844 -62.04402,25.46496 -15.26937,1.23991 -372.73468,1.18541 -387.83844,-0.0591 z m 402.88246,-16.58574 c 12.23026,-2.85116 18.11462,-5.2455 26.35547,-10.72401 11.80349,-7.84694 21.82898,-20.55273 26.16779,-33.16368 1.08018,-3.13961 2.75434,-9.58378 3.72035,-14.32039 1.6401,-8.0418 1.75639,-21.65558 1.75639,-205.61201 0,-185.72203 -0.10299,-197.50605 -1.79903,-205.83959 -3.59453,-17.66185 -10.36635,-30.58419 -21.23075,-40.51363 -10.57427,-9.66429 -20.62594,-14.47791 -37.35821,-17.89039 -8.0418,-1.6401 -21.65558,-1.75639 -205.61201,-1.75639 -183.95643,0 -197.57021,0.11629 -205.61201,1.75639 -4.73661,0.96601 -11.18078,2.64017 -14.32039,3.72035 -12.61095,4.33881 -25.31674,14.3643 -33.16368,26.16779 -5.47895,8.24152 -7.87337,14.12645 -10.72334,26.35547 -2.08407,8.94258 -2.09967,10.20896 -2.44461,198.5 -0.22722,124.02804 0.008,193.81873 0.68033,202 1.76341,21.45297 6.27656,34.63218 15.9874,46.68609 12.56601,15.59798 29.76178,24.01443 53.5963,26.23264 4.95,0.46068 95.85,0.76152 202,0.66854 192.18348,-0.16835 193.03808,-0.17794 202,-2.26718 z m -364.5,-23.4659 c 0,-7.91975 0.0307,-8.01306 6.13816,-18.65687 3.376,-5.88353 6.28177,-10.86559 6.45728,-11.07126 0.17551,-0.20567 6.75084,-1.61965 14.61184,-3.14219 17.42832,-3.37554 31.19734,-6.82275 45.48381,-11.38729 5.9449,-1.8994 16.20891,-4.84375 22.80891,-6.543 6.6,-1.69926 15.23767,-4.62249 19.19483,-6.49608 l 7.19483,-3.40652 2.55517,-8.37709 c 1.40534,-4.6074 2.55517,-8.83945 2.55517,-9.40456 0,-0.5651 -2.25353,-2.08295 -5.00785,-3.37301 l -5.00785,-2.34555 -17.99215,4.90671 c -17.80754,4.85636 -17.99215,4.9351 -17.99215,7.67461 0,2.56256 -0.29676,2.76791 -4,2.76791 l -4,0 0.0466,-11.25 c 0.0385,-9.28912 0.4363,-12.19595 2.28234,-16.67711 l 2.23574,-5.42712 15.44016,-5.14738 c 13.55748,-4.51975 15.50934,-5.44314 16.00751,-7.57289 0.46901,-2.00511 1.27069,-2.47751 4.62535,-2.72556 l 4.05801,-0.30007 1.82654,-7.99731 c 1.0046,-4.39851 2.31056,-8.62038 2.90215,-9.38193 0.59158,-0.76154 3.12833,-1.67861 5.63722,-2.03792 l 4.56163,-0.6533 6.39611,9.83529 c 3.51786,5.40942 6.51326,10.00843 6.65644,10.22003 0.14318,0.2116 15.2372,3.15257 33.54226,6.53548 l 33.28194,6.15075 0.28174,11.71452 0.28173,11.71452 -9.05886,0 c -8.52985,0 -9.47653,-0.21899 -16.21106,-3.75 l -7.1522,-3.75 -16.32068,-0.3173 c -10.5565,-0.20523 -16.32067,0.0403 -16.32067,0.69515 0,1.07839 -3.61362,26.57994 -4.48093,31.62215 l -0.51602,3 27.24847,0.0395 c 29.25204,0.0424 35.51561,0.59358 80.24848,7.06186 13.2,1.90869 32.20603,4.56937 42.23562,5.91263 10.0296,1.34326 22.8546,3.37094 28.5,4.50595 9.64059,1.93824 36.86946,8.75182 37.50186,9.38422 0.78445,0.78445 5.22329,17.42921 5.24154,19.65472 0.0444,5.41623 -0.94647,5.72407 -21.47902,6.67284 -10.84535,0.50115 -19.50906,0.50275 -20.18608,0.004 -0.67782,-0.49961 -1.96337,-0.49615 -3,0.008 -1.05115,0.51128 -4.44208,0.50375 -8.06392,-0.0179 -5.94875,-0.85682 -6.25,-1.03395 -6.25,-3.67497 0,-2.73822 -0.10205,-2.78334 -7.75,-3.42694 -22.17669,-1.86624 -21.25,-1.68425 -21.25,-4.17344 0,-2.75617 -1.35955,-3.105 -15.75,-4.04111 -8.54477,-0.55585 -10.25,-0.93854 -10.25,-2.30032 0,-1.32315 -3.27782,-2.24875 -17.25,-4.87111 -30.09127,-5.64766 -30.69668,-5.7033 -62.25,-5.72093 -25.83958,-0.0144 -32.35757,0.30376 -47,2.29449 -30.56184,4.15509 -33.57963,4.94745 -82,21.53021 -10.45,3.57886 -24.0625,8.0742 -30.25,9.98965 l -11.25,3.48262 0,-7.95955 z m -26.25,-61.09731 -7.75,-4.95372 0,-10.04134 c 0,-8.09562 -0.31342,-10.27051 -1.61748,-11.22406 -1.48891,-1.08873 -1.48687,-1.43528 0.0257,-4.36025 2.06366,-3.99067 4.19933,-4.07233 17.60846,-0.67329 l 9.87909,2.50422 19.55213,-7.65248 c 18.78477,-7.35215 19.5521,-7.76003 19.5521,-10.39293 0,-2.3726 0.50088,-2.83441 3.73159,-3.4405 5.32229,-0.99847 7.26193,-2.27357 7.31335,-4.80771 0.0333,-1.64024 3.15485,-4.54964 12.03264,-11.21482 11.63666,-8.73645 11.97942,-9.10249 11.70506,-12.5 l -0.28264,-3.5 -13.5,0.0112 -13.5,0.0112 -17,5.87982 c -19.65504,6.79812 -27.38896,10.11092 -36.6668,15.70609 -8.14072,4.90941 -14.65604,7.43636 -21.5832,8.37097 l -5.25,0.70833 0,-7.66647 0,-7.66647 8.62049,-10.17737 c 5.26786,-6.21925 9.83759,-10.65051 11.75,-11.39393 1.72123,-0.6691 19.62484,-6.01611 39.7858,-11.88223 l 36.65628,-10.66568 0.63121,-4.61776 c 0.34716,-2.53978 0.89042,-6.53027 1.20725,-8.86777 l 0.57606,-4.25 -6.13421,0 c -3.37381,0 -13.43741,1.57446 -22.36354,3.49881 -8.92614,1.92434 -16.79184,3.49934 -17.47934,3.5 -0.82513,7.8e-4 -1.25,-1.61703 -1.25,-4.75977 0,-4.08859 0.74999,-5.88032 5.31059,-12.68713 l 5.31059,-7.92617 10.43941,-2.56287 c 9.39137,-2.30558 10.47348,-2.80394 10.77878,-4.96413 l 0.33937,-2.40126 -11.83937,0.64215 c -6.51165,0.35318 -13.07687,0.92371 -14.58937,1.26784 -2.65311,0.60364 -2.75,0.48184 -2.75,-3.4569 0,-2.3479 1.62938,-8.28426 3.83473,-13.97119 l 3.83473,-9.88861 -3.9462,-7.84286 -3.94619,-7.84287 2.57717,-5.25474 c 2.28783,-4.66481 3.05815,-5.37562 6.86146,-6.33145 4.02365,-1.0112 8.18755,-2.46905 25.2843,-8.85245 6.90883,-2.57955 7.41025,-2.61825 38.5,-2.97133 l 31.5,-0.35774 7.75,7.9665 7.75,7.9665 0,12.55748 0,12.55747 -8,6.79972 c -10.62418,9.03017 -10.59368,9.59046 1.0468,19.22647 l 8.9532,7.41147 0,9.2306 0,9.23061 -11.25,0.4311 c -9.18867,0.3521 -12.62422,0.94601 -18.75,3.2413 -4.125,1.54562 -8.9625,3.02442 -10.75,3.28624 -2.80732,0.41118 -3.25,0.86975 -3.25,3.36662 l 0,2.89059 20.25,-0.0317 c 12.2401,-0.0192 24.2055,-0.6048 30.25,-1.48056 5.5,-0.79686 10.3375,-1.45759 10.75,-1.46829 0.4125,-0.0107 0.75,-1.10312 0.75,-2.42762 0,-1.76614 1.19924,-3.16581 4.49821,-5.25 l 4.49821,-2.84182 -0.009,-7.5 c -0.005,-4.125 -0.67997,-9.71169 -1.5,-12.41488 -0.82003,-2.70318 -1.37766,-5.00698 -1.23918,-5.11956 0.13848,-0.11258 5.86811,-0.7272 12.7325,-1.36583 6.86439,-0.63863 12.79824,-1.48483 13.18633,-1.88044 0.75157,-0.76609 9.83293,-26.10069 9.83293,-27.43129 0,-0.43337 -1.8,-0.78794 -4,-0.78794 -3.69261,0 -4.00138,0.21133 -4.018,2.75 -0.0173,2.64133 -0.87395,3.09762 -21.67911,11.54713 -19.63069,7.97253 -21.92553,8.6876 -24.482,7.62868 -2.80314,-1.1611 -2.82089,-1.22588 -2.82119,-10.29713 l -3e-4,-9.12868 5.19934,-7.70182 c 4.90213,-7.26157 5.64304,-7.90465 12.9615,-11.25 4.26919,-1.9515 8.87533,-3.54818 10.23586,-3.54818 3.85348,0 7.80533,-1.83467 11.38086,-5.28363 2.68802,-2.59287 4.09684,-3.16595 7.83885,-3.18867 l 4.56188,-0.0277 7.66116,-17.7596 c 7.64942,-17.73242 7.66705,-17.76122 11.51804,-18.81733 3.16817,-0.86885 4.13275,-1.75998 5.40169,-4.9904 1.44905,-3.68893 1.79881,-3.93206 5.64311,-3.9229 2.25407,0.005 6.40448,1.08357 9.22314,2.396 5.10042,2.37487 5.13004,2.41581 6.21852,8.59517 1.00722,5.7181 0.89853,6.67258 -1.37484,12.07387 -1.35768,3.22571 -2.46851,6.10348 -2.46851,6.39506 0,0.91753 28.10914,0.56026 37,-0.47029 5.97304,-0.69233 10.20941,-0.6514 14.25,0.1377 6.93006,1.35339 7.16504,2.34779 2.91107,12.31956 l -2.83892,6.65475 -13.9353,9.30385 c -16.04762,10.71412 -16.61629,11.40656 -25.2427,30.73719 -7.25735,16.26273 -7.97388,18.78551 -8.78346,30.92501 l -0.63874,9.57765 3.80254,3.80254 c 5.2798,5.27979 12.11151,8.12857 27.71349,11.55635 15.45859,3.39627 30.89528,4.9651 48.97444,4.97727 l 12.71242,0.009 17.67388,-7.5 c 9.72064,-4.125 18.03898,-7.5 18.48521,-7.5 1.35818,0 9.80788,16.3316 12.41389,23.9936 1.34735,3.96138 2.91536,9.77031 3.48447,12.90873 0.98671,5.44139 0.86687,6.09821 -2.58212,14.15195 -1.98928,4.64515 -4.13061,8.95203 -4.75852,9.57085 -0.62791,0.61882 -6.23362,2.26598 -12.45714,3.66034 l -11.31549,2.53522 -34.93451,-6.63057 c -33.87119,-6.4292 -34.93451,-6.70106 -34.93451,-8.93223 0,-2.88134 -0.0319,-2.89443 -24,-9.86899 -23.12129,-6.72814 -25.96582,-8.49579 -31.75898,-19.7358 -3.66269,-7.10643 -3.68907,-7.24577 -4.00507,-21.15355 l -0.31809,-14 12.93353,-34.5 12.93354,-34.5 -3.69933,-0.29806 c -2.85132,-0.22974 -5.28613,0.62921 -10.62153,3.74704 -5.88282,3.43772 -7.07948,4.60862 -7.96965,7.79806 -0.83487,2.99135 -1.58746,3.81595 -3.70846,4.06335 -2.5314,0.29528 -2.79192,0.87984 -5.34811,12 -1.47789,6.42929 -4.39626,19.09094 -6.48525,28.13702 l -3.79817,16.44741 2.42279,2.87931 c 2.1591,2.56595 2.42278,3.83011 2.42278,11.6155 0,8.28144 -0.14706,8.87708 -2.82528,11.44297 -3.58257,3.43233 -7.91472,4.6674 -16.37143,4.6674 -6.12529,0 -6.86646,0.22933 -8.50661,2.63207 -0.98817,1.44763 -3.92413,4.96799 -6.52435,7.82301 -4.56998,5.0178 -5.14722,5.31524 -17.30621,8.91748 -7.83248,2.32046 -13.3939,3.46775 -14.73947,3.04068 -1.18851,-0.37722 -4.79065,-3.19418 -8.00475,-6.25992 -4.25004,-4.05384 -6.06188,-5.22126 -6.64333,-4.28045 -0.51289,0.82988 -5.22584,1.71187 -13.14704,2.46037 l -12.34754,1.16676 -5.41958,14.19665 c -4.85723,12.72359 -5.72243,14.30223 -8.33838,15.21415 -1.60534,0.55963 -7.06043,5.21294 -12.12242,10.34068 -9.68769,9.81356 -25.20468,20.97996 -38.094,27.41338 -3.91028,1.95173 -15.88461,8.20041 -26.60961,13.88596 -10.725,5.68554 -21.75,11.1974 -24.5,12.24857 l -5,1.91121 z M 319.7983,532.04109 c 11.67479,-2.03571 21.10391,-3.82427 20.95361,-3.97458 -0.15031,-0.1503 -5.82926,-1.35454 -12.61989,-2.67608 l -12.34661,-2.4028 -12.857,2.48306 -12.85699,2.48306 0,3.8828 0,3.88281 4.25,0.0115 c 2.3375,0.006 13.8021,-1.65407 25.47688,-3.68979 z m -14.75224,-26.8375 c 14.03895,-2.48367 26.47937,-4.72756 27.64538,-4.98643 1.60587,-0.35651 2.2844,-1.50467 2.79782,-4.73423 0.37279,-2.34496 0.93006,-5.27607 1.23838,-6.51357 0.54294,-2.17912 0.33052,-2.25 -6.74263,-2.25 -5.98054,0 -12.42282,1.38973 -35.57102,7.67336 -27.80408,7.54749 -28.28481,7.72218 -29.30518,10.64923 -0.57056,1.63672 -1.03739,3.35871 -1.03739,3.82663 0,2.11346 16.81188,0.60972 40.97464,-3.66499 z M 201.32142,483.60431 c -2.85795,-1.83028 -3.25,-2.61152 -3.25,-6.47625 0,-6.30656 6.37761,-22.14543 10.36244,-25.73522 4.86914,-4.38645 11.53795,-7.38458 23.83514,-10.71569 6.21633,-1.6839 14.90242,-4.65537 19.30242,-6.60327 10.35298,-4.58331 20.52888,-8.30674 22.77475,-8.33343 2.5352,-0.0301 3.16964,-2.5593 5.1477,-20.52109 0.96911,-8.8 1.95439,-16.71993 2.18951,-17.59985 0.30997,-1.15998 2.53349,-1.89538 8.08708,-2.67468 7.57409,-1.06282 7.70579,-1.04302 11.79943,1.77348 3.18304,2.18999 4.69766,4.25266 6.55338,8.92467 2.12057,5.3388 2.74126,6.07638 5.11341,6.07638 2.55632,0 2.89995,0.60791 6.46275,11.43299 l 3.76287,11.433 7.55456,0.56034 c 23.88483,1.77162 49.1753,6.82959 59.05456,11.81064 l 6.5,3.27725 0.31882,5.49289 c 0.17535,3.02109 -0.23418,7.18039 -0.91006,9.24289 l -1.22888,3.75 -17.58994,9.9e-4 c -13.73081,7.7e-4 -21.72165,-0.58701 -36.42231,-2.67913 l -18.83237,-2.68013 -8.56839,2.24728 c -5.1204,1.34296 -14.04081,2.60569 -22.16762,3.13795 -15.37375,1.00687 -24.79805,3.28544 -35.14927,8.49823 -11.86959,5.97743 -45.73881,18.50353 -49.90834,18.45796 -0.8479,-0.009 -3.00414,-0.95345 -4.79164,-2.0982 z M 397.02729,376.96936 c -1.98688,-4.41484 -2.05535,-5.31448 -0.97034,-12.75 1.44912,-9.9307 1.008,-33.67256 -0.63576,-34.21828 -0.63263,-0.21003 -5.03387,3.63018 -9.78053,8.53381 -6.70904,6.93088 -10.57142,9.96302 -17.34977,13.62031 -10.9095,5.88627 -13.80131,6.46753 -17.5411,3.5258 -3.33032,-2.61963 -2.99022,-3.04985 4.61786,-5.84141 3.18793,-1.16972 7.67264,-3.08403 9.96603,-4.25402 4.43681,-2.26349 25.73774,-22.69258 25.73774,-24.6843 0,-0.65005 -1.0125,-1.18143 -2.25,-1.18085 -3.22767,0.002 -22.10593,4.77425 -27.8683,7.04557 l -4.8817,1.92419 0,-3.37463 c 0,-6.38453 2.18718,-7.69692 20.15915,-12.09619 l 16.34085,-4 0,-4.5 0,-4.5 -7,0 c -3.85,0 -8.6875,0.35789 -10.75,0.79531 -3.42863,0.72716 -3.75,0.60873 -3.75,-1.38196 0,-3.18845 3.68801,-8.62295 6.26723,-9.23515 1.22802,-0.29148 4.78003,-0.83514 7.89335,-1.20813 5.8807,-0.70454 6.72763,-1.56484 6.86173,-6.97007 0.0632,-2.54775 3.83708,-7.07193 6.59748,-7.90918 1.77755,-0.53914 2.22153,-0.13421 2.75,2.50812 0.34661,1.73308 0.63021,4.63791 0.63021,6.45516 0,3.59121 -0.85957,3.22921 14.5,6.1065 4.32434,0.81007 6.5,3.13604 6.5,6.94907 0,2.99552 -0.33116,3.36183 -3.59241,3.97364 -1.97583,0.37067 -6.47583,0.37853 -10,0.0175 l -6.40759,-0.65647 0.0153,3.27785 c 0.008,1.80282 0.34592,3.7721 0.75,4.37617 0.405,0.60546 5.44654,1.38656 11.23469,1.74063 5.775,0.35327 14.52354,1.35174 19.44121,2.21883 13.154,2.31931 16.01724,4.2507 12.26276,8.27178 -4.66505,4.9963 -6.18139,5.17749 -18.20397,2.17525 -14.48571,-3.61733 -21.5,-4.51447 -21.5,-2.74988 0,2.20252 12.96134,15.6847 17.11687,17.80469 2.13572,1.08957 3.88313,2.44844 3.88313,3.01972 0,0.57128 0.43855,0.76766 0.97455,0.43639 0.536,-0.33127 3.3485,0.48218 6.25,1.80765 8.91317,4.07175 16.72044,6.01467 15.36662,3.82413 -0.28978,-0.46887 1.21349,-0.38796 3.3406,0.1798 2.53959,0.67786 3.69353,1.48557 3.36086,2.35249 -0.35109,0.91492 0.42526,1.3202 2.52895,1.3202 1.66956,0 3.74254,0.70698 4.60663,1.57106 0.86408,0.86409 3.12365,1.65159 5.02126,1.75 3.20574,0.16626 3.3578,0.32065 2.14612,2.17894 -3.51667,5.39331 -21.50415,9.12801 -29.76976,6.18102 -2.37921,-0.84827 -5.58029,-1.81135 -7.11351,-2.14018 -2.27274,-0.48742 -15.22956,-10.56414 -19.21231,-14.94171 -1.62368,-1.78463 -10.28466,-8.59913 -10.92919,-8.59913 -0.32592,0 -0.51457,5.5125 -0.41922,12.25 0.0954,6.7375 -0.17934,16.3 -0.61043,21.25 -1.18466,13.6028 -2.99332,15.73134 -6.58529,7.75 z m 140.25306,-0.23953 c -0.86534,-3.06434 -0.7696,-20.23382 0.16363,-29.34262 0.61268,-5.9801 0.49977,-6.66761 -1.09471,-6.66553 -0.97782,0.001 -6.50285,4.40929 -12.27785,9.7956 -15.22468,14.19996 -20.20833,17.27176 -21.48674,13.24387 -0.40257,-1.2684 -1.51075,-2.04179 -2.92566,-2.04179 -1.25269,0 -3.02237,-0.82293 -3.93261,-1.82874 -2.0611,-2.27749 -2.09541,-3.17126 -0.12175,-3.17126 4.17033,0 19.18304,-9.79193 25.90385,-16.8956 1.6154,-1.70742 3.44456,-3.1044 4.06479,-3.1044 1.29618,0 4.87208,-6.95937 4.01585,-7.81561 -0.3124,-0.31239 -2.01919,-0.054 -3.79286,0.57423 -1.77368,0.62822 -7.52484,2.01073 -12.78037,3.07225 -5.25552,1.06151 -11.4251,2.88383 -13.71016,4.04958 -5.53596,2.82423 -6.95322,2.67597 -7.71831,-0.80746 -0.57174,-2.60313 1.56814,-9.07299 3.00086,-9.07299 2.13807,0 25.19035,-5.40367 25.89994,-6.07119 0.54957,-0.51698 0.18788,-2.479 -0.90291,-4.89794 -1.75542,-3.89284 -1.75584,-4.10607 -0.0118,-6.03317 3.37069,-3.72457 12.98083,-1.90614 14.1303,2.67374 1.17766,4.69216 3.06515,2.47055 3.70284,-4.35828 0.34343,-3.67777 0.44492,-6.86635 0.22553,-7.08574 -0.21939,-0.21939 -3.69781,0.13184 -7.72982,0.78052 -9.95662,1.60185 -13.08496,1.1495 -13.88642,-2.00794 -0.38009,-1.49741 -0.0229,-3.5788 0.89064,-5.19004 1.30318,-2.29842 2.55447,-2.85517 8.59504,-3.82429 11.20851,-1.79823 10.8849,-1.59986 10.25621,-6.2871 -0.84216,-6.27874 1.25811,-10.27798 5.85006,-11.13943 5.09676,-0.95616 6.36633,0.594 7.12303,8.69731 0.70614,7.56192 -0.53087,6.78777 14.10379,8.82642 8.59554,1.19738 10.69628,2.37671 7.8895,4.42908 -0.90907,0.66469 -1.65282,2.17143 -1.65282,3.34829 0,1.92698 -0.54692,2.13976 -5.5,2.13976 -3.025,0 -5.5,0.41383 -5.5,0.91963 0,0.5058 2.25,1.66697 5,2.58037 4.17976,1.38829 5,2.06093 5,4.10024 0,1.34173 -1.125,4.22162 -2.5,6.39976 -1.375,2.17814 -2.5,4.35993 -2.5,4.84841 0,0.48849 9,1.70401 20,2.70117 11,0.99715 20,2.09723 20,2.44462 0,0.34739 -1.2375,1.81466 -2.75,3.26061 -2.48791,2.37844 -10.48779,5.17406 -11.60603,4.05583 -0.44929,-0.4493 -29.0432,-3.2731 -33.39397,-3.29785 -3.26103,-0.0185 -2.7539,1.06101 2.2798,4.85314 2.45737,1.85126 6.19963,5.04647 8.31613,7.10046 5.47068,5.30911 28.35818,12.96349 41.5376,13.89161 8.12111,0.5719 9.14281,0.86037 9.35774,2.642 0.26135,2.16641 -3.19056,6.59972 -6.53057,8.38723 -3.87391,2.07326 -18.39653,1.35675 -25.9011,-1.27788 -3.74528,-1.31486 -8.03617,-2.67069 -9.5353,-3.01295 -1.49914,-0.34227 -6.89914,-4.56178 -12,-9.37669 -5.10087,-4.81491 -10.9618,-9.5268 -13.0243,-10.47087 l -3.75,-1.71648 0,9.98382 c 0,7.31222 0.0446,9.64199 0.0446,9.64199 l 0.0268,2.25805 c 0,0 0.44492,2.0914 0.49495,8.46109 l 0.0664,8.45051 -4.35744,0.34656 c -3.93207,0.31273 -4.42666,0.10149 -5.06638,-2.16391 z m 13.69999,-63.49774 c 0.78521,-1.643 1.53715,-5.1305 1.67098,-7.75 0.23541,-4.60772 0.15219,-4.76273 -2.55699,-4.76273 -3.01518,0 -3.01052,-0.0115 -4.59889,11.33612 -0.6536,4.66942 -0.59534,4.82454 1.69015,4.5 1.45193,-0.20617 2.91906,-1.49106 3.79475,-3.32339 z m -266.40892,44.00349 c -13.2,-6.77217 -24.97763,-12.60301 -26.17252,-12.95742 -1.78465,-0.52935 -2.76392,0.21127 -5.48514,4.1484 -1.82195,2.63604 -4.46339,7.00847 -5.86986,9.71651 -1.40647,2.70805 -3.68543,5.76605 -5.06435,6.79556 -2.73065,2.03872 -5.90813,1.53025 -5.90813,-0.94545 0,-1.73108 5.65019,-11.44255 10.88085,-18.70186 1.95299,-2.71043 3.06756,-5.08916 2.47683,-5.28607 -0.59073,-0.19691 -1.92537,-0.98497 -2.96587,-1.75126 -1.85294,-1.36461 -1.85124,-1.46915 0.0823,-5.08775 2.46482,-4.61277 5.15566,-6.4077 10.89992,-7.27081 4.37992,-0.65811 4.75575,-1.01709 14.14486,-13.51058 5.30497,-7.05897 9.40195,-13.07795 9.1044,-13.37549 -0.63106,-0.63107 -18.96145,2.53078 -22.58945,3.89649 -2.00112,0.7533 -2.18967,1.10318 -1,1.85561 0.80637,0.51 3.04112,0.99049 4.96612,1.06775 3.34791,0.13438 3.30446,0.17528 -1,0.94119 -7.87348,1.40098 -17.61279,1.12045 -18.9968,-0.54718 -1.87069,-2.25405 3.10808,-11.82376 7.83056,-15.05109 4.80394,-3.28302 14.39561,-6.21573 26.16624,-8.0005 12.22211,-1.85323 20.58324,-1.82803 31.61227,0.0953 14.80602,2.58195 20.82302,7.71877 20.60742,17.59293 -0.18362,8.40923 -5.64913,16.99732 -13.3018,20.90142 -7.61888,3.88686 -32.38589,8.93258 -44.04623,8.97342 -8.28203,0.029 -7.22332,1.45695 4.38372,5.91255 14.47109,5.55503 32.86434,14.25378 34.58452,16.35612 2.70749,3.30901 2.41608,15.62939 -0.38584,16.31263 -0.52469,0.12795 -11.75402,-5.30822 -24.95402,-12.08039 z m 7.178,-38.05546 c 18.91628,-4.66264 28.00412,-9.21769 28.56353,-14.31674 0.17021,-1.55145 -0.59524,-2.987 -2.24153,-4.20388 -3.2325,-2.38935 -17.54501,-4.31992 -25.63853,-3.45831 -5.81455,0.61899 -6.16998,0.81074 -6.73444,3.63304 -0.60091,3.00454 -4.3274,9.01813 -10.15351,16.38513 -5.15529,6.51875 -5.18353,6.72213 -0.82195,5.91827 2.11663,-0.3901 9.77853,-2.17098 17.02643,-3.95751 z m -103.16877,46.36784 c -3.78676,-2.97866 -6.46098,-9.32837 -6.48727,-15.40345 -0.0387,-8.94832 6.49016,-24.65535 18.43989,-44.36223 3.04598,-5.02328 5.53815,-9.56742 5.53815,-10.09808 0,-1.70719 -3.57258,-1.03326 -8.60106,1.62251 -5.97981,3.1582 -23.39894,16.09389 -23.39894,17.37637 0,0.50936 2.3625,0.8384 5.25,0.7312 2.8875,-0.10721 5.475,0.19248 5.75,0.66597 0.275,0.47348 -3.24865,1.94312 -7.83033,3.26586 -4.58169,1.32274 -9.59893,3.06099 -11.14942,3.86278 -4.10539,2.12298 -5.37599,0.20593 -4.50167,-6.79196 1.30151,-10.41693 7.56399,-17.20017 25.05524,-27.13871 8.96023,-5.09121 22.85057,-10.55886 26.82435,-10.55886 2.79035,0 6.36084,3.6729 7.52856,7.74451 0.78676,2.7433 0.2014,4.14986 -5.58087,13.41012 -7.68556,12.30839 -17.19929,30.00202 -20.618,38.34537 -3.54162,8.64333 -4.01361,12.93055 -1.73091,15.72239 l 1.86225,2.27761 4.13965,-4 c 10.12133,-9.77988 28.99333,-38.92024 29.01053,-44.79532 0.0151,-5.14476 8.12528,-17.70468 11.4323,-17.70468 2.5611,0 2.87904,2.50522 1.0423,8.21281 -5.50249,17.09867 -34.24814,61.12744 -44.41605,68.0306 -3.32099,2.25468 -4.2283,2.20489 -7.5587,-0.41481 z"
       style="fill:#000000" />
  </g>
</svg>
