<?xml version="1.0" encoding="UTF-8" standalone="no"?>
<!-- Created with Inkscape (http://www.inkscape.org/) -->

<svg
   xmlns:dc="http://purl.org/dc/elements/1.1/"
   xmlns:cc="http://creativecommons.org/ns#"
   xmlns:rdf="http://www.w3.org/1999/02/22-rdf-syntax-ns#"
   xmlns:svg="http://www.w3.org/2000/svg"
   xmlns="http://www.w3.org/2000/svg"
   xmlns:sodipodi="http://sodipodi.sourceforge.net/DTD/sodipodi-0.dtd"
   xmlns:inkscape="http://www.inkscape.org/namespaces/inkscape"
   id="svg4155"
   version="1.1"
   inkscape:version="0.91 r13725"
   xml:space="preserve"
   width="744.09998"
   height="1052.3625"
   viewBox="0 0 744.09998 1052.3625"
   sodipodi:docname="Drone-Impact-Challenge-Brand-Logo_white.svg"
   inkscape:export-filename="/Users/taichi/Downloads/DroneImpactChallengeLogo_White_300dpi.png"
   inkscape:export-xdpi="300"
   inkscape:export-ydpi="300"><metadata
     id="metadata4161"><rdf:RDF><cc:Work
         rdf:about=""><dc:format>image/svg+xml</dc:format><dc:type
           rdf:resource="http://purl.org/dc/dcmitype/StillImage" /><dc:title></dc:title></cc:Work></rdf:RDF></metadata><defs
     id="defs4159"><clipPath
       clipPathUnits="userSpaceOnUse"
       id="clipPath4169"><path
         d="m 0,841.89 595.28,0 L 595.28,0 0,0 0,841.89 Z"
         id="path4171"
         inkscape:connector-curvature="0" /></clipPath></defs><sodipodi:namedview
     pagecolor="#ffffff"
     bordercolor="#666666"
     borderopacity="1"
     objecttolerance="10"
     gridtolerance="10"
     guidetolerance="10"
     inkscape:pageopacity="0"
     inkscape:pageshadow="2"
     inkscape:window-width="1186"
     inkscape:window-height="625"
     id="namedview4157"
     showgrid="false"
     inkscape:zoom="0.52358382"
     inkscape:cx="372.04999"
     inkscape:cy="526.18127"
     inkscape:window-x="0"
     inkscape:window-y="0"
     inkscape:window-maximized="0"
     inkscape:current-layer="g4165" /><g
     id="g4163"
     inkscape:groupmode="layer"
     inkscape:label="Drone-Impact-Challenge-Brand-Logo"
     transform="matrix(1.25,0,0,-1.25,0,1052.3625)"><g
       id="g4165"><g
         id="g4167"
         clip-path="url(#clipPath4169)"
         style="fill:#ffffff"><g
           id="g4173"
           transform="translate(114.578,536.9353)"
           style="fill:#ffffff"><path
             d="m 0,0 c 1.309,-0.388 2.992,-0.388 4.302,-0.388 11.761,0 22.031,12.068 22.031,48.273 0,26.86 -6.722,43.214 -21.476,43.214 -1.683,0 -3.357,0 -4.857,-0.589 L 0,0 Z m -24.46,109.007 c 6.158,1.555 15.127,2.532 24.832,2.532 15.881,0 26.897,-3.896 34.929,-11.681 C 46.134,89.735 51.737,72.411 51.737,46.91 51.737,20.439 45.198,1.563 34.182,-8.56 25.587,-16.932 13.261,-21.218 -4.103,-21.218 c -7.849,0 -15.499,0.778 -20.357,1.564 l 0,128.661 z"
             style="fill:#ffffff;fill-opacity:1;fill-rule:nonzero;stroke:none"
             id="path4175"
             inkscape:connector-curvature="0" /></g><g
           id="g4177"
           transform="translate(206.2577,588.7178)"
           style="fill:#ffffff"><path
             d="M 0,0 4.484,0 C 15.126,0 21.103,8.95 21.103,20.431 21.103,31.722 16.81,39.507 5.976,39.894 3.738,39.894 1.31,39.704 0,39.117 L 0,0 Z m -24.459,57.225 c 7.658,1.554 17.364,2.531 26.705,2.531 13.444,0 25.587,-2.141 33.611,-9.738 7.658,-7.202 10.087,-15.955 10.087,-27.246 0,-14.022 -6.722,-26.67 -19.421,-32.707 l 0,-0.39 c 8.588,-3.696 12.881,-11.869 15.309,-26.081 2.429,-14.599 5.795,-30.753 8.032,-35.618 l -25.586,0 c -1.675,3.697 -4.477,16.932 -6.349,31.532 -2.239,16.157 -6.16,20.83 -14.191,20.83 l -3.738,0 0,-52.362 -24.459,0 0,129.249 z"
             style="fill:#ffffff;fill-opacity:1;fill-rule:nonzero;stroke:none"
             id="path4179"
             inkscape:connector-curvature="0" /></g><g
           id="g4181"
           transform="translate(288.7956,582.2908)"
           style="fill:#ffffff"><path
             d="m 0,0 c 0,-29.779 5.412,-44.968 15.309,-44.968 10.46,0 14.38,19.465 14.38,46.133 0,22.971 -3.365,43.799 -14.562,43.799 C 5.412,44.964 0,28.223 0,0 m 55.085,2.332 c 0,-49.442 -16.808,-69.483 -40.713,-69.483 -28.57,0 -39.777,31.531 -39.777,67.538 0,35.82 13.636,66.764 41.65,66.764 30.255,0 38.84,-34.842 38.84,-64.819"
             style="fill:#ffffff;fill-opacity:1;fill-rule:nonzero;stroke:none"
             id="path4183"
             inkscape:connector-curvature="0" /></g><g
           id="g4185"
           transform="translate(359.3732,516.6942)"
           style="fill:#ffffff"><path
             d="m 0,0 0,131.193 22.412,0 L 41.83,79.806 C 45.754,69.68 51.729,52.749 55.275,41.458 l 0.375,0 c -0.747,13.822 -2.429,36.594 -2.429,60.733 l 0,29.002 21.474,0 L 74.695,0 52.293,0 33.053,49.83 c -4.29,11.091 -9.896,27.835 -12.887,39.513 l -0.374,0 C 20.54,76.11 21.475,55.861 21.475,29.39 L 21.475,0 0,0 Z"
             style="fill:#ffffff;fill-opacity:1;fill-rule:nonzero;stroke:none"
             id="path4187"
             inkscape:connector-curvature="0" /></g><g
           id="g4189"
           transform="translate(508.7589,574.309)"
           style="fill:#ffffff"><path
             d="m 0,0 -28.578,0 0,-35.423 32.307,0 0,-22.192 -56.768,0 0,131.193 54.712,0 0,-22.187 -30.251,0 0,-30.174 L 0,21.217 0,0 Z"
             style="fill:#ffffff;fill-opacity:1;fill-rule:nonzero;stroke:none"
             id="path4191"
             inkscape:connector-curvature="0" /></g><path
           d="m 95.59,458.478 -5.398,0 0,46.243 5.398,0 0,-46.243 z"
           style="fill:#ffffff;fill-opacity:1;fill-rule:nonzero;stroke:none"
           id="path4193"
           inkscape:connector-curvature="0" /><g
           id="g4195"
           transform="translate(132.7373,478.373)"
           style="fill:#ffffff"><path
             d="m 0,0 c -0.351,6.108 -0.703,12.901 -0.491,18.114 l -0.28,0 C -1.822,12.967 -3.086,7.479 -4.557,2.059 l -5.746,-21.68 -3.506,0 -5.466,20.792 c -1.615,5.901 -2.947,11.596 -3.926,16.943 l -0.212,0 c 0.072,-5.422 -0.28,-11.872 -0.56,-18.453 l -0.911,-19.556 -4.838,0 2.807,46.243 5.886,0 5.469,-21.134 c 1.611,-6.102 2.803,-10.633 3.782,-15.913 l 0.212,0 c 0.912,5.28 1.964,9.672 3.506,15.913 l 5.326,21.134 6.029,0 2.731,-46.243 -5.045,0 L 0,0 Z"
             style="fill:#ffffff;fill-opacity:1;fill-rule:nonzero;stroke:none"
             id="path4197"
             inkscape:connector-curvature="0" /></g><g
           id="g4199"
           transform="translate(151.5161,481.8086)"
           style="fill:#ffffff"><path
             d="m 0,0 c 0.632,-0.074 1.26,-0.14 2.172,-0.14 5.258,0 8.831,3.363 8.831,9.95 0,4.734 -1.962,8.985 -7.988,8.985 C 1.752,18.795 0.701,18.66 0,18.453 L 0,0 Z m -5.33,22.228 c 2.176,0.549 4.699,0.89 7.782,0.89 4.345,0 8.06,-1.028 10.514,-3.361 2.244,-2.192 3.435,-5.556 3.435,-9.605 0,-4.256 -1.051,-7.136 -2.875,-9.47 -2.523,-3.43 -6.937,-5.145 -11.143,-5.145 -0.912,0 -1.612,0 -2.383,0.073 l 0,-18.941 -5.33,0 0,45.559 z"
             style="fill:#ffffff;fill-opacity:1;fill-rule:nonzero;stroke:none"
             id="path4201"
             inkscape:connector-curvature="0" /></g><g
           id="g4203"
           transform="translate(185.5068,476.5894)"
           style="fill:#ffffff"><path
             d="m 0,0 -2.454,11.737 c -0.7,3.293 -1.332,7.131 -1.892,10.566 l -0.212,0 C -5.117,18.801 -5.817,14.824 -6.52,11.737 L -8.971,0 0,0 Z m -9.743,-4.251 -3.083,-13.86 -5.258,0 10.792,46.242 5.961,0 10.512,-46.242 -5.326,0 -3.083,13.86 -10.515,0 z"
             style="fill:#ffffff;fill-opacity:1;fill-rule:nonzero;stroke:none"
             id="path4205"
             inkscape:connector-curvature="0" /></g><g
           id="g4207"
           transform="translate(219.8525,459.2998)"
           style="fill:#ffffff"><path
             d="m 0,0 c -1.474,-0.749 -3.858,-1.229 -6.8,-1.229 -9.184,0 -15.842,7.27 -15.842,22.983 0,18.246 9.252,24.081 16.753,24.081 2.803,0 4.906,-0.549 5.817,-1.169 l -1.191,-4.458 c -1.12,0.48 -2.243,0.961 -4.697,0.961 -5.047,0 -11.004,-4.805 -11.004,-18.94 0,-14.13 5.326,-18.795 11.146,-18.795 2.032,0 3.783,0.481 4.906,0.957 L 0,0 Z"
             style="fill:#ffffff;fill-opacity:1;fill-rule:nonzero;stroke:none"
             id="path4209"
             inkscape:connector-curvature="0" /></g><g
           id="g4211"
           transform="translate(231.4819,499.9873)"
           style="fill:#ffffff"><path
             d="m 0,0 -8.624,0 0,4.733 22.642,0 0,-4.733 -8.62,0 0,-41.509 -5.398,0 L 0,0 Z"
             style="fill:#ffffff;fill-opacity:1;fill-rule:nonzero;stroke:none"
             id="path4213"
             inkscape:connector-curvature="0" /></g><g
           id="g4215"
           transform="translate(289.6025,458.8943)"
           style="fill:#ffffff"><path
             d="m 0,0 c -1.475,-0.754 -3.862,-1.237 -6.81,-1.237 -9.198,0 -15.865,7.317 -15.865,23.131 0,18.362 9.266,24.234 16.778,24.234 2.807,0 4.913,-0.552 5.826,-1.176 l -1.193,-4.487 c -1.121,0.483 -2.246,0.968 -4.705,0.968 -5.054,0 -11.019,-4.836 -11.019,-19.062 0,-14.22 5.333,-18.915 11.16,-18.915 2.036,0 3.791,0.484 4.915,0.962 L 0,0 Z"
             style="fill:#ffffff;fill-opacity:1;fill-rule:nonzero;stroke:none"
             id="path4217"
             inkscape:connector-curvature="0" /></g><g
           id="g4219"
           transform="translate(300.481,504.6057)"
           style="fill:#ffffff"><path
             d="m 0,0 0,-19.949 13.267,0 0,19.949 5.405,0 0,-46.539 -5.405,0 0,21.752 -13.267,0 0,-21.752 -5.406,0 L -5.406,0 0,0 Z"
             style="fill:#ffffff;fill-opacity:1;fill-rule:nonzero;stroke:none"
             id="path4221"
             inkscape:connector-curvature="0" /></g><g
           id="g4223"
           transform="translate(343.0156,476.2947)"
           style="fill:#ffffff"><path
             d="m 0,0 -2.457,11.812 c -0.701,3.314 -1.335,7.176 -1.896,10.633 l -0.211,0 C -5.125,18.921 -5.828,14.918 -6.53,11.812 L -8.984,0 0,0 Z m -9.758,-4.278 -3.087,-13.95 -5.267,0 10.81,46.539 5.97,0 10.526,-46.539 -5.334,0 -3.088,13.95 -10.53,0 z"
             style="fill:#ffffff;fill-opacity:1;fill-rule:nonzero;stroke:none"
             id="path4225"
             inkscape:connector-curvature="0" /></g><g
           id="g4227"
           transform="translate(358.1025,504.6057)"
           style="fill:#ffffff"><path
             d="m 0,0 5.409,0 0,-42.045 13.266,0 0,-4.494 L 0,-46.539 0,0 Z"
             style="fill:#ffffff;fill-opacity:1;fill-rule:nonzero;stroke:none"
             id="path4229"
             inkscape:connector-curvature="0" /></g><g
           id="g4231"
           transform="translate(382.251,504.6057)"
           style="fill:#ffffff"><path
             d="m 0,0 5.403,0 0,-42.045 13.266,0 0,-4.494 L 0,-46.539 0,0 Z"
             style="fill:#ffffff;fill-opacity:1;fill-rule:nonzero;stroke:none"
             id="path4233"
             inkscape:connector-curvature="0" /></g><g
           id="g4235"
           transform="translate(423.665,480.1618)"
           style="fill:#ffffff"><path
             d="m 0,0 -11.865,0 0,-17.468 13.478,0 0,-4.627 -18.883,0 0,46.539 18.04,0 0,-4.628 -12.635,0 0,-15.321 L 0,4.495 0,0 Z"
             style="fill:#ffffff;fill-opacity:1;fill-rule:nonzero;stroke:none"
             id="path4237"
             inkscape:connector-curvature="0" /></g><g
           id="g4239"
           transform="translate(431.3115,458.0671)"
           style="fill:#ffffff"><path
             d="m 0,0 0,46.539 5.057,0 8.705,-21.821 c 1.964,-5.037 4.421,-11.184 6.036,-16.223 l 0.139,0 c -0.421,7.318 -0.629,13.325 -0.629,21.403 l 0,16.641 4.841,0 0,-46.539 -5.054,0 -8.985,22.371 c -1.964,4.695 -4,10.015 -5.685,15.813 l -0.14,0 C 4.704,31.97 4.846,26.031 4.846,16.088 L 4.846,0 0,0 Z"
             style="fill:#ffffff;fill-opacity:1;fill-rule:nonzero;stroke:none"
             id="path4241"
             inkscape:connector-curvature="0" /></g><g
           id="g4243"
           transform="translate(487.1152,459.2434)"
           style="fill:#ffffff"><path
             d="m 0,0 c -1.966,-0.827 -5.404,-1.586 -8.353,-1.586 -4.142,0 -8.001,1.102 -11.162,4.484 -3.44,3.593 -5.758,10.011 -5.685,18.571 0.071,18.162 9.476,24.31 17.83,24.31 2.95,0 5.265,-0.552 6.668,-1.311 l -1.194,-4.561 c -1.261,0.625 -2.876,1.11 -5.405,1.11 -5.896,0 -12.285,-4.629 -12.285,-19.062 0,-14.361 5.545,-18.988 11.233,-18.988 1.823,0 2.878,0.274 3.299,0.552 l 0,15.192 -6.109,0 0,4.42 L 0,23.131 0,0 Z"
             style="fill:#ffffff;fill-opacity:1;fill-rule:nonzero;stroke:none"
             id="path4245"
             inkscape:connector-curvature="0" /></g><g
           id="g4247"
           transform="translate(511.7529,480.1618)"
           style="fill:#ffffff"><path
             d="m 0,0 -11.864,0 0,-17.468 13.476,0 0,-4.627 -18.883,0 0,46.539 18.041,0 0,-4.628 -12.634,0 0,-15.321 L 0,4.495 0,0 Z"
             style="fill:#ffffff;fill-opacity:1;fill-rule:nonzero;stroke:none"
             id="path4249"
             inkscape:connector-curvature="0" /></g></g></g></g></svg>